<svg width="425" height="333" viewBox="0 0 425 333" fill="none" xmlns="http://www.w3.org/2000/svg">
<g clip-path="url(#clip0)">
<path opacity="0.1" d="M149.083 326.55C190.026 326.55 223.218 320.254 223.218 312.487C223.218 304.72 190.026 298.424 149.083 298.424C108.139 298.424 74.9473 304.72 74.9473 312.487C74.9473 320.254 108.139 326.55 149.083 326.55Z" fill="#463F3A"/>
<path opacity="0.1" d="M246.928 46.9619C219.682 46.0176 193.732 37.2071 168.953 27.5703C144.174 17.9335 119.631 7.25973 93.0372 2.15469C75.9326 -1.12924 56.3695 -1.59717 42.5907 7.5759C29.3255 16.4286 25.0399 31.6678 22.7371 45.8195C21.0027 56.468 19.9839 67.6772 24.7326 77.647C28.0331 84.5689 33.8848 90.3864 37.9346 97.0175C52.025 120.085 42.0645 148.532 26.7996 171.055C19.6429 181.62 11.3285 191.712 5.80093 202.946C0.273416 214.181 -2.28196 227.097 2.55515 238.589C7.34595 249.971 18.7672 258.503 31.14 264.51C56.2685 276.714 85.8679 280.205 114.752 282.186C178.67 286.562 242.924 284.669 307.011 282.768C330.729 282.068 354.548 281.356 377.879 277.684C390.837 275.644 404.212 272.406 413.621 264.59C425.56 254.671 428.519 237.876 420.516 225.44C407.095 204.573 369.998 199.392 360.606 177.004C355.445 164.677 360.745 150.951 368.251 139.523C384.35 115.001 411.33 93.4891 412.749 65.464C413.726 46.2158 400.755 26.938 380.7 17.8281C359.68 8.2799 330.527 9.48133 315.026 25.2855C299.05 41.5407 270.987 47.8008 246.928 46.9619Z" fill="#463F3A"/>
<path d="M225.277 152.494L212.382 143.789L218.886 134.093L184.829 131.374L172.591 140.85L157.271 132.251L144.494 133.789L144.343 130.417C144.185 126.901 143.832 123.397 143.286 119.92C143.341 118.866 143.379 117.656 143.375 116.341C143.375 110.798 142.625 103.45 139.333 98.5513L140.091 91.7306L133.945 84.4587C134.932 82.4899 136.057 80.5937 137.312 78.7846C137.523 78.481 137.733 78.186 137.961 77.8993C145.938 77.3218 152.232 70.7539 152.232 62.7233C152.232 62.3523 152.232 61.9813 152.19 61.6146C152.19 61.467 152.161 61.3153 152.144 61.1677C152.922 61.5893 153.71 62.0108 154.497 62.4324C154.644 62.6432 154.813 62.8539 154.998 63.1027L155.036 63.149L155.272 63.4399L155.347 63.5284C155.432 63.6296 155.52 63.7266 155.608 63.8277L155.667 63.8952C155.89 64.1439 156.126 64.3968 156.379 64.6456C156.409 64.6701 156.437 64.6968 156.463 64.7257L156.779 65.0207L156.867 65.1008C157.137 65.3411 157.423 65.573 157.709 65.7922L157.802 65.8596L158.164 66.1084L158.282 66.1842C158.421 66.2686 158.564 66.3571 158.703 66.4372L158.753 66.4667C158.917 66.5552 159.086 66.6395 159.254 66.7196L159.338 66.7533C159.481 66.8152 159.622 66.8742 159.759 66.9304L159.89 66.9768C160.037 67.0274 160.18 67.0737 160.332 67.1159L160.424 67.1412C160.61 67.1875 160.795 67.2255 160.984 67.255H161.005C161.184 67.2839 161.364 67.3022 161.544 67.3098H161.666C161.828 67.3182 161.989 67.3182 162.15 67.3098H162.256C162.458 67.2981 162.659 67.2742 162.858 67.2381C163.8 67.1141 164.704 66.7892 165.51 66.2854C165.715 66.148 165.897 65.9787 166.049 65.7838C166.891 64.6793 165.965 63.4694 165.965 63.4694C165.636 62.6853 163.506 62.1331 163.506 62.1331C163.506 62.1331 156.77 59.3171 156.77 57.0744C156.77 54.8317 155.086 43.1968 137.704 40.5368C137.704 40.5368 126.396 39.9002 123.218 45.9622L123.151 46.6704C122.216 47.2564 121.441 48.4325 120.519 48.7782C120.121 48.8638 119.737 49.0058 119.378 49.1997V49.1196C119.272 49.2129 119.185 49.326 119.122 49.4527C118.924 49.8472 118.805 50.2769 118.772 50.7173C118.677 51.2553 118.491 51.7729 118.221 52.2476C118.145 52.3825 118.061 52.512 117.968 52.6354L117.897 52.7492C118.385 52.7874 118.876 52.7079 119.328 52.5174C119.257 53.0945 119.115 53.6608 118.907 54.2036C119.175 54.2123 119.439 54.1438 119.669 54.0063C119.899 53.8688 120.084 53.668 120.204 53.4279V53.3942L120.258 53.3183C120.364 53.1232 120.452 52.9185 120.519 52.7071L120.473 52.7577C120.557 52.4837 120.633 52.2054 120.726 51.9356C120.768 51.7837 120.838 51.6408 120.932 51.5141C121.044 51.4007 121.182 51.3152 121.333 51.2647C121.484 51.2142 121.646 51.2 121.803 51.2232L121.631 54.8781H121.707C121.605 55.144 121.481 55.4006 121.336 55.6453C120.738 56.6149 119.652 57.2768 119.252 58.3391C119.08 58.8514 119.014 59.3937 119.059 59.9326C119.059 60.2487 119.096 60.5691 119.122 60.8853V60.86C119.181 61.7031 119.197 62.5041 118.743 63.1828C118.431 63.6465 117.93 63.9964 117.758 64.5233C117.71 64.6701 117.689 64.8243 117.695 64.9786C117.728 65.4406 117.825 65.8958 117.981 66.3318C117.983 66.3235 117.983 66.3148 117.981 66.3065C118.086 66.6272 118.11 66.9689 118.052 67.3014C117.863 68.1445 116.84 68.8485 116.89 69.6536C116.888 69.7595 116.903 69.8651 116.937 69.9656C117.134 70.3589 117.474 70.6609 117.888 70.8087C118.537 71.1783 119.283 71.3429 120.027 71.2809C120.306 71.2304 120.575 71.138 120.827 71.0068C120.532 71.6856 120.229 72.3558 119.922 72.9924C119.875 73.0935 119.825 73.1947 119.774 73.2959C119.774 73.2959 117.173 71.5549 115.695 75.1044C115.264 75.842 114.955 76.645 114.781 77.482C114.707 77.8167 114.603 78.1441 114.47 78.46C113.814 79.572 112.832 80.4551 111.658 80.9893C108.643 82.372 96.4685 97.5775 96.2538 101.515C96.1485 103.052 95.889 104.574 95.4792 106.059C94.5208 109.556 94.2746 113.211 94.7551 116.805C94.9056 117.966 95.1549 119.113 95.5003 120.232C96.7927 124.165 97.6557 131.504 97.6557 131.504L99.0534 144.244C99.0015 146.002 99.0775 147.762 99.2807 149.509C97.8536 151.141 92.124 157.94 94.3131 159.791C95.9971 161.249 98.9439 161.009 100.598 160.71C99.2049 164.162 97.0116 170.165 96.7211 174.288C96.3002 180.388 97.441 188.469 99.247 191.572C101.053 194.675 107.073 202.634 107.073 202.634C107.073 202.634 106.791 213.552 108.942 217.519C111.094 221.486 111.961 229.714 111.961 229.714C111.961 229.714 113.969 236.662 112.963 239.216C111.957 241.771 114.828 243.896 111.813 245.594C108.799 247.293 104.943 285.583 104.943 285.583C104.943 285.583 103.39 310.678 104.943 311.956C105.026 312.016 105.115 312.069 105.208 312.112V320.543C105.208 320.543 104.13 322.313 108.513 322.672C111.515 322.912 120.023 323.456 125.07 323.772L128.981 324.017C128.981 324.017 138.243 325.863 142.335 324.017C146.427 322.17 153.68 322.212 152.603 317.335C152.46 316.671 152.268 316.019 152.03 315.383C150.847 312.356 148.839 312.011 145.138 311.167C144.924 311.121 144.718 311.079 144.528 311.045C140.63 310.367 139.35 312.183 137.165 309.819C135.266 307.774 129.221 305.485 127.162 304.76C127.213 304.608 127.276 304.461 127.327 304.305C126.744 304.206 126.202 303.941 125.765 303.542L131.343 303.896L134.664 304.102C134.664 304.102 142.537 305.675 146.031 304.102C149.525 302.53 155.672 302.572 154.754 298.428C154.633 297.863 154.471 297.308 154.27 296.767C153.263 294.196 151.554 293.913 148.41 293.201C148.229 293.163 148.06 293.125 147.892 293.095C144.579 292.518 143.492 294.061 141.636 292.054C140.045 290.343 135.022 288.425 133.216 287.771C133.216 286.835 131.953 285.503 131.158 284.167C130.223 282.607 131.949 277.148 131.949 277.148L132.934 254.498C133.309 254.33 133.706 254.217 134.113 254.16C134.113 254.16 138.567 249.903 137.561 245.367C137.356 243.995 137.249 242.61 137.241 241.223C138.706 239.861 140.722 237.85 141.295 236.611C142.229 234.592 141.295 224.807 141.295 224.807V187.394L148.746 188.149L155.507 188.844L157.566 189.055L164.327 189.738L179.865 191.311L193.867 188.655L199.925 187.508L212.382 185.147V154.627L225.277 152.494ZM122.721 51.3581L121.854 51.2654C122.14 51.278 122.443 51.3328 122.721 51.3581Z" fill="url(#paint0_linear)"/>
<path d="M195.054 172.311C190.844 178.344 175.71 175.148 175.71 175.148L163.981 164.158L162.402 162.67L165.05 157.038C165.05 157.038 165.892 157.27 167.336 157.683C174.918 159.888 198.607 167.24 195.054 172.311Z" fill="#EFB7B9"/>
<path opacity="0.1" d="M167.328 157.683C166.81 159.487 165.391 162.19 163.981 164.158L162.402 162.67L165.05 157.038C165.05 157.038 165.901 157.27 167.328 157.683Z" fill="black"/>
<path d="M127.104 94.1713C127.104 94.1713 116.293 98.9728 116.824 110.764C117.205 118.36 118.032 125.927 119.299 133.427C119.299 133.427 117.089 151.17 126.292 155.744C135.494 160.318 144.011 164.078 144.011 164.078C144.011 164.078 158.408 165.629 160.198 166.27C161.987 166.911 167.577 157.114 166.546 155.588C165.515 154.062 152.3 150.862 150.616 148.316C148.932 145.77 145.038 144.197 145.038 144.197C145.038 144.197 141.018 141.761 140.744 139.56C140.47 137.36 141.531 135.72 141.801 134.754C142.07 133.789 142.752 124.469 142.752 124.469C142.752 124.469 147.29 91.292 127.104 94.1713Z" fill="#DCE6F2"/>
<path opacity="0.1" d="M134.238 132.942C134.238 132.942 119.406 135.43 120.842 140.627C120.842 140.627 126.226 135.016 134.238 132.942Z" fill="black"/>
<path opacity="0.1" d="M134.354 135.046C134.354 135.046 126.199 141.711 127.795 142.052C129.39 142.394 134.354 135.046 134.354 135.046Z" fill="black"/>
<path opacity="0.1" d="M138.273 137.368C138.273 137.368 136.088 141.849 137.431 141.546C138.774 141.242 138.273 137.368 138.273 137.368Z" fill="black"/>
<path opacity="0.1" d="M167.876 158.16L166.975 157.903C167.232 157.06 167.303 156.377 167.093 156.06C166.061 154.534 152.855 151.339 151.175 148.789C149.496 146.238 145.597 144.67 145.597 144.67C145.597 144.67 141.577 142.233 141.303 140.033C141.03 137.832 142.091 136.193 142.36 135.227C142.63 134.262 143.312 124.937 143.312 124.937C143.312 124.937 147.837 91.7647 127.651 94.6439C127.651 94.6439 116.84 99.4497 117.366 111.241C117.748 118.837 118.576 126.404 119.846 133.903C119.846 133.903 117.636 151.647 126.838 156.221C136.041 160.795 144.558 164.555 144.558 164.555C144.558 164.555 158.951 166.102 160.744 166.747C161.422 166.991 162.647 165.731 163.847 163.998L164.529 164.635L176.258 175.621C176.258 175.621 191.392 178.82 195.602 172.788C199.159 167.712 175.475 160.36 167.876 158.16Z" fill="black"/>
<path d="M120.882 49.9167C120.47 49.9974 120.075 50.15 119.716 50.3678C119.295 50.7176 119.295 51.3163 119.19 51.839C119.066 52.5661 118.778 53.2554 118.348 53.854C118.827 53.8892 119.307 53.8097 119.75 53.6222C119.677 54.1992 119.536 54.7653 119.329 55.3084C119.591 55.3151 119.85 55.2459 120.074 55.109C120.298 54.9722 120.477 54.7736 120.591 54.5369C120.814 54.0619 120.99 53.5664 121.118 53.0573C121.157 52.905 121.226 52.7619 121.32 52.6357C121.707 52.1762 122.427 52.3828 123.025 52.4418C123.522 52.4838 124.022 52.3918 124.472 52.1754C124.922 51.959 125.306 51.6259 125.584 51.2109C126.22 50.2455 126.258 47.7752 124.742 47.5138C123.159 47.2525 122.174 49.4361 120.882 49.9167Z" fill="#965D7B"/>
<g opacity="0.1">
<path opacity="0.1" d="M119.673 50.8859C119.711 50.6794 119.736 50.4644 119.782 50.2578C119.382 50.6077 119.361 51.2021 119.256 51.729C119.203 52.0331 119.12 52.3311 119.008 52.6185C119.339 52.0895 119.565 51.5011 119.673 50.8859Z" fill="black"/>
<path opacity="0.1" d="M119.808 54.3679C120.017 53.8255 120.159 53.259 120.229 52.6816C119.807 52.8593 119.351 52.9386 118.894 52.9135C118.761 53.21 118.599 53.4924 118.41 53.7566C118.888 53.7936 119.367 53.7155 119.808 53.529C119.738 54.1063 119.596 54.6728 119.387 55.2152C119.649 55.2213 119.908 55.1519 120.131 55.0151C120.355 54.8784 120.535 54.68 120.65 54.4437C120.755 54.2521 120.839 54.0501 120.902 53.8409C120.779 54.0138 120.614 54.1527 120.423 54.2448C120.231 54.3369 120.02 54.3792 119.808 54.3679Z" fill="black"/>
<path opacity="0.1" d="M123.504 51.5016C122.907 51.4425 122.183 51.236 121.795 51.6955C121.703 51.8226 121.635 51.9655 121.593 52.117C121.555 52.2266 121.522 52.3405 121.492 52.4543C121.892 52.1381 122.54 52.3067 123.084 52.3615C123.581 52.4022 124.08 52.3096 124.53 52.0933C124.98 51.877 125.364 51.5447 125.643 51.1306C125.771 50.9259 125.866 50.7026 125.925 50.4688C125.637 50.8261 125.265 51.1071 124.843 51.2872C124.421 51.4672 123.962 51.5408 123.504 51.5016Z" fill="black"/>
</g>
<path d="M133.553 84.7324L139.973 92.4638L139.136 100.267L131.377 88.1049L133.553 84.7324Z" fill="#DCE6F2"/>
<path opacity="0.1" d="M139.969 92.4638L139.182 99.8031L139.131 100.267L132.131 89.2894L131.377 88.1049L131.596 87.7634L133.549 84.7324L133.983 85.2552L139.969 92.4638Z" fill="black"/>
<path d="M143.303 74.2652C141.13 74.8891 139.055 77.0306 137.249 79.6316C136.028 81.4263 134.937 83.3055 133.982 85.2552C133.389 86.444 132.867 87.5864 132.433 88.5813L132.13 89.2895C131.397 91.0221 130.989 92.1814 130.989 92.1814C130.989 92.1814 114.36 79.6612 116.991 78.818C117.875 78.5356 119.037 76.6386 120.187 74.2484L120.33 73.9449C121.058 72.4104 121.774 70.6989 122.409 69.0885C123.71 65.7793 124.674 62.9043 124.674 62.9043C124.674 62.9043 149.933 72.3682 143.303 74.2652Z" fill="#EFB7B9"/>
<path d="M153.252 62.2002C153.252 62.2002 157.091 69.1559 162.248 68.2074C167.405 67.2589 165.284 64.4724 165.284 64.4724L153.252 62.2002Z" fill="#444053"/>
<path d="M145.812 302.973C142.411 304.529 134.719 302.973 134.719 302.973L131.478 302.771C127.268 302.501 120.22 302.046 117.728 301.843C114.091 301.544 114.983 300.052 114.983 300.052V291.035L132.631 286.558C132.631 286.558 139.607 288.948 141.518 291.035C143.333 293.024 144.393 291.494 147.631 292.067C147.791 292.097 147.959 292.131 148.136 292.173C151.209 292.877 152.876 293.155 153.861 295.705C154.059 296.241 154.218 296.791 154.337 297.349C155.246 301.455 149.209 301.426 145.812 302.973Z" fill="#A36468"/>
<path opacity="0.1" d="M153.861 295.704C153.229 296.1 152.564 296.441 151.874 296.725C149.559 297.783 147.357 299.073 145.016 300.072C142.676 301.071 140.154 301.783 137.62 301.594C136.294 301.497 134.938 301.172 133.671 301.551C132.887 301.854 132.149 302.264 131.478 302.77C127.268 302.5 120.22 302.045 117.728 301.842C114.091 301.543 114.983 300.051 114.983 300.051V298.997C115.114 298.997 115.261 298.959 115.43 298.946C116.301 298.932 117.168 299.062 117.998 299.33C119.825 299.827 121.643 300.316 123.47 300.805C123.621 300.237 123.885 299.706 124.247 299.244C124.609 298.781 125.061 298.398 125.575 298.116C126.618 297.561 127.789 297.292 128.969 297.336C131.802 297.374 134.483 298.719 137.312 298.853C138.103 298.926 138.9 298.793 139.624 298.466C140.011 298.272 140.352 297.989 140.731 297.774C141.337 297.481 141.978 297.264 142.638 297.129C144.493 296.667 146.315 296.078 148.09 295.367C148.595 295.169 149.184 294.811 149.117 294.271C149.028 293.555 147.904 293.47 147.61 292.813C147.558 292.694 147.534 292.565 147.54 292.436C147.545 292.306 147.581 292.18 147.643 292.066C147.803 292.096 147.972 292.13 148.149 292.172C151.209 292.876 152.876 293.154 153.861 295.704Z" fill="black"/>
<path d="M142.216 322.702C138.217 324.531 129.166 322.702 129.166 322.702L125.356 322.478C120.422 322.162 112.112 321.635 109.177 321.387C104.896 321.032 105.948 319.279 105.948 319.279V308.651L126.715 303.382C126.715 303.382 134.925 306.194 137.173 308.651C139.307 310.991 140.541 309.191 144.367 309.865C144.557 309.899 144.755 309.941 144.961 309.988C148.577 310.831 150.539 311.147 151.697 314.148C151.931 314.779 152.118 315.425 152.257 316.083C153.301 320.914 146.215 320.876 142.216 322.702Z" fill="#A36468"/>
<path opacity="0.1" d="M151.688 314.148C150.944 314.613 150.163 315.015 149.352 315.349C146.628 316.593 144.035 318.11 141.282 319.286C138.528 320.463 135.56 321.297 132.576 321.078C131.018 320.964 129.422 320.572 127.945 321.027C127.019 321.389 126.148 321.877 125.356 322.478C120.422 322.161 112.112 321.635 109.177 321.386C104.896 321.032 105.948 319.278 105.948 319.278V318.039C106.123 318.01 106.298 317.99 106.475 317.98C107.5 317.961 108.522 318.113 109.497 318.431L115.934 320.168C116.113 319.498 116.427 318.871 116.856 318.327C117.286 317.783 117.821 317.332 118.43 317.002C119.658 316.347 121.036 316.029 122.426 316.083C125.76 316.129 128.913 317.71 132.243 317.87C133.17 317.955 134.104 317.799 134.954 317.419C135.413 317.187 135.796 316.854 136.259 316.605C136.971 316.256 137.725 316.001 138.503 315.847C140.674 315.298 142.806 314.605 144.885 313.772C145.479 313.536 146.173 313.115 146.093 312.483C145.988 311.639 144.666 311.538 144.317 310.763C144.258 310.623 144.231 310.471 144.238 310.319C144.246 310.168 144.287 310.019 144.359 309.886C144.548 309.919 144.746 309.962 144.952 310.008C148.569 310.817 150.531 311.146 151.688 314.148Z" fill="black"/>
<path d="M133.165 249.776L132.041 276.263C132.041 276.263 130.357 281.671 131.27 283.218C132.184 284.766 133.725 286.308 133.165 287.223C132.605 288.138 125.869 298.028 123.693 294.234C121.516 290.44 119.369 273.999 119.369 273.999L121.377 253.693L133.165 249.776Z" fill="#444053"/>
<path d="M138.041 183.786L141.165 187.968V224.34C141.165 224.34 142.079 234.036 141.165 236.038C140.251 238.04 135.621 242.045 135.621 242.045L131.727 222.021L132.569 200.838L138.041 183.786Z" fill="#444053"/>
<path opacity="0.1" d="M133.165 249.776L132.041 276.263C132.041 276.263 130.357 281.671 131.27 283.218C132.184 284.766 133.725 286.308 133.165 287.223C132.605 288.138 125.869 298.028 123.693 294.234C121.516 290.44 119.369 273.999 119.369 273.999L121.377 253.693L133.165 249.776Z" fill="black"/>
<path opacity="0.1" d="M138.041 183.786L141.165 187.968V224.34C141.165 224.34 142.079 234.036 141.165 236.038C140.251 238.04 135.621 242.045 135.621 242.045L131.727 222.021L132.569 200.838L138.041 183.786Z" fill="black"/>
<path d="M141.165 168.273V187.947L137.658 203.262C137.658 203.262 136.534 240.22 137.515 244.713C138.496 249.207 134.147 253.427 134.147 253.427C134.147 253.427 131.621 253.709 131.621 255.674C131.621 257.638 127.411 263.262 127.411 263.262L127.55 274.222C127.55 274.222 129.377 294.74 126.57 298.673C123.762 302.606 127.55 303.171 127.55 303.171C124.044 314.692 107.204 312.023 105.684 310.759C104.165 309.494 105.684 284.622 105.684 284.622C105.684 284.622 109.448 246.682 112.395 244.996C115.342 243.31 112.538 241.202 113.519 238.673C114.5 236.143 112.538 229.259 112.538 229.259C112.538 229.259 111.696 221.106 109.591 217.173C107.486 213.24 107.764 202.419 107.764 202.419C107.764 202.419 101.87 194.548 100.119 191.458C98.3678 188.368 97.2396 180.359 97.6605 174.314C97.9468 170.229 100.09 164.28 101.449 160.857C102.102 159.218 102.573 158.155 102.573 158.155L102.973 158.261L125.968 164.289L141.165 168.273Z" fill="#444053"/>
<path opacity="0.1" d="M143.304 74.2655C141.132 74.8894 139.056 77.0309 137.25 79.6319H136.779C134.131 79.6337 131.531 78.9358 129.239 77.6086C126.948 76.2814 125.047 74.372 123.728 72.0734C123.177 71.1209 122.734 70.11 122.406 69.0592C123.707 65.75 124.671 62.875 124.671 62.875C124.671 62.875 149.934 72.3685 143.304 74.2655Z" fill="black"/>
<path d="M151.827 63.7265C151.831 66.0331 151.306 68.3098 150.292 70.3811C149.279 72.4525 147.804 74.2633 145.982 75.6741C144.159 77.0848 142.038 78.0579 139.781 78.5183C137.524 78.9787 135.191 78.9142 132.963 78.3296C130.735 77.7451 128.67 76.6562 126.928 75.1469C125.186 73.6375 123.814 71.7479 122.916 69.6236C122.019 67.4994 121.62 65.1971 121.751 62.8943C121.882 60.5914 122.539 58.3494 123.671 56.3409C124.128 55.5248 124.661 54.754 125.263 54.0392C126.256 52.8548 127.422 51.8286 128.723 50.9955C130.921 49.5973 133.443 48.7937 136.043 48.6634C138.643 48.533 141.233 49.0803 143.558 50.2518C145.884 51.4233 147.867 53.1789 149.312 55.3471C150.758 57.5153 151.617 60.0219 151.806 62.622C151.814 62.993 151.827 63.3598 151.827 63.7265Z" fill="#EFB7B9"/>
<path opacity="0.1" d="M139.181 99.8036L139.131 100.267L132.13 89.3068C131.397 91.0394 130.989 92.1987 130.989 92.1987C130.989 92.1987 114.36 79.6616 116.991 78.8185C117.875 78.5361 119.037 76.6391 120.187 74.2488L120.33 73.9453C121.551 77.5876 128.644 84.8678 131.595 87.785C131.936 88.1222 132.218 88.4005 132.437 88.6028L132.888 89.0244L133.123 89.2604C134.197 90.3691 138.727 95.2592 139.181 99.8036Z" fill="black"/>
<path d="M144.415 136.994L143.649 161.684L143.514 166.081C143.514 166.081 134.438 165.238 125.967 164.311C119.148 163.564 112.719 162.759 111.73 162.287C110.467 161.693 107.76 161.233 105.625 160.942C103.975 160.719 102.679 160.601 102.679 160.601C102.679 160.601 102.194 160.744 101.449 160.879C99.8243 161.174 96.9701 161.414 95.3072 159.968C93.1812 158.118 98.7677 151.394 100.161 149.779L100.468 149.43L99.9422 144.561L98.574 131.935C98.574 131.935 97.732 124.663 96.4691 120.764C96.1314 119.655 95.8878 118.52 95.7408 117.37C95.2715 113.809 95.5119 110.19 96.448 106.722C96.848 105.248 97.1018 103.739 97.2058 102.215C97.4163 98.3159 109.309 83.2453 112.256 81.8752C113.582 81.2562 114.648 80.191 115.27 78.8653C115.476 78.4484 115.63 78.0082 115.729 77.5542C116.992 72.074 120.187 74.2492 120.187 74.2492C120.958 78.5365 132.884 89.8848 132.884 89.8848L133.12 90.1208C134.303 91.3349 139.574 97.0344 139.199 101.899C139.124 103.71 139.394 105.518 139.995 107.228C142.421 114.877 143.815 122.816 144.141 130.835L144.415 136.994Z" fill="#DCE6F2"/>
<path opacity="0.1" d="M127.517 107.674C127.517 107.674 124.57 114.84 122.36 116C120.15 117.159 128.569 118.445 127.517 107.674Z" fill="black"/>
<path opacity="0.1" d="M129.726 121.059C129.726 121.059 122.99 121.902 122.99 123.166C122.99 124.431 129.726 121.059 129.726 121.059Z" fill="black"/>
<path opacity="0.1" d="M136.779 129.278C136.779 129.278 126.991 150.145 124.254 150.778C121.518 151.41 136.779 129.278 136.779 129.278Z" fill="black"/>
<path opacity="0.1" d="M132.699 90.9421L124.603 94.4663L114.832 79.6866C115.037 79.2697 115.191 78.8295 115.291 78.3755C116.554 72.8953 119.749 75.0705 119.749 75.0705C120.52 79.3578 132.446 90.7061 132.446 90.7061L132.699 90.9421Z" fill="black"/>
<path d="M133.12 90.0994L125.025 93.6236L115.254 78.8438C115.459 78.427 115.613 77.9867 115.713 77.5328C116.976 72.0525 120.171 74.2278 120.171 74.2278C120.941 78.515 132.868 89.8633 132.868 89.8633L133.12 90.0994Z" fill="#DCE6F2"/>
<path opacity="0.1" d="M143.513 166.08C143.513 166.08 134.436 165.237 125.966 164.31L141.164 168.293V172.93C140.498 173.533 139.922 173.845 139.547 173.685C137.796 172.947 123.503 170.629 123.503 170.629C123.503 170.629 115.202 166.413 106.243 161.355C106.026 161.234 105.815 161.102 105.612 160.958C104.567 160.248 103.667 159.345 102.959 158.298C101.305 155.9 100.497 152.818 100.147 149.795C99.9508 148.063 99.8776 146.319 99.9283 144.577C99.9717 142.601 100.152 140.63 100.467 138.679C99.6007 131.122 99.179 123.521 99.2042 115.915C99.3094 104.111 110.36 99.8958 110.36 99.8958C130.673 98.1042 124.375 130.986 124.375 130.986C124.375 130.986 123.2 140.26 122.88 141.208C122.56 142.157 121.411 143.738 121.567 145.951C121.723 148.164 125.604 150.811 125.604 150.811C125.604 150.811 129.393 152.59 130.955 155.225C132.091 157.168 139.476 159.803 143.647 161.683L143.513 166.08Z" fill="black"/>
<path opacity="0.1" d="M150.316 54.3686C150.324 55.0629 150.18 55.7506 149.895 56.3836C149.679 56.9001 149.429 57.4015 149.146 57.8843C148.703 58.7725 148.074 59.5546 147.302 60.1776C146.329 60.8732 145.1 61.0671 143.934 61.3495C142.768 61.632 141.555 62.0831 140.89 63.0779C140.53 63.7175 140.289 64.4174 140.179 65.1436C140.067 65.869 139.778 66.5555 139.337 67.1417C139.107 67.4279 138.789 67.6296 138.432 67.7151C138.076 67.8005 137.701 67.7649 137.367 67.6139C137.015 67.3762 136.748 67.032 136.605 66.6316C136.125 65.5482 136.003 64.3468 135.809 63.1791C135.615 62.0114 135.342 60.81 134.626 59.8699C133.91 58.9298 132.643 58.3101 131.519 58.6769C131.143 58.8219 130.8 59.0415 130.51 59.3226C130.221 59.6037 129.991 59.9404 129.835 60.3125C129.524 61.0575 129.31 61.8397 129.2 62.6395C128.677 65.5005 128.061 68.3446 127.351 71.1718C127.33 71.2877 127.282 71.3972 127.212 71.4922C127.101 71.6039 126.949 71.6674 126.791 71.6692C125.848 71.7957 124.943 71.1339 123.992 71.2055C123.894 71.2121 123.797 71.2276 123.701 71.2519C122.163 68.5749 121.484 65.489 121.756 62.4124C122.028 59.3359 123.237 56.4174 125.221 54.0524L125.297 54.0313C125.93 53.8063 126.505 53.4435 126.981 52.969C127.589 52.36 128.151 51.7077 128.665 51.0172L129.002 50.5956C129.969 49.4283 131.072 48.3798 132.285 47.4719C132.617 47.2001 132.997 46.9941 133.405 46.8649C133.755 46.7967 134.113 46.7853 134.466 46.8311C135.92 47.0059 137.386 47.0609 138.848 46.9955C139.868 46.8351 140.895 46.731 141.926 46.6836C144.591 46.7595 146.864 48.6438 148.548 50.7095C149.453 51.7676 150.261 52.9859 150.316 54.3686Z" fill="black"/>
<path d="M121.705 56.7417C121.12 57.7028 120.063 58.3562 119.667 59.4101C119.086 60.9404 120.067 62.8458 119.166 64.2116C118.867 64.6711 118.375 65.0126 118.207 65.5395C117.92 66.429 118.703 67.3775 118.501 68.2923C118.299 69.2071 117.095 69.9785 117.415 70.8722C117.604 71.262 117.936 71.5639 118.341 71.7153C118.979 72.0818 119.713 72.245 120.446 72.1833C121.595 71.9936 122.45 70.8638 123.616 70.7795C124.563 70.712 125.469 71.3697 126.412 71.2474C126.57 71.2419 126.72 71.1772 126.833 71.0661C126.904 70.9722 126.952 70.8622 126.971 70.7458C127.679 67.9213 128.296 65.0772 128.824 62.2135C128.931 61.4134 129.144 60.631 129.455 59.8865C129.613 59.5151 129.843 59.179 130.132 58.8981C130.421 58.6172 130.764 58.3971 131.139 58.2508C132.263 57.8883 133.526 58.5038 134.246 59.4438C134.966 60.3839 135.24 61.5853 135.433 62.7531C135.627 63.9208 135.749 65.1222 136.225 66.2056C136.369 66.6074 136.638 66.9528 136.991 67.192C137.622 67.5588 138.473 67.2679 138.957 66.7199C139.4 66.1335 139.69 65.445 139.799 64.7175C139.909 63.9927 140.15 63.2941 140.51 62.6561C141.175 61.6612 142.392 61.2102 143.554 60.9277C144.716 60.6453 145.941 60.4471 146.922 59.7516C147.693 59.1292 148.322 58.3487 148.766 57.4625C149.389 56.3749 149.97 55.1945 149.919 53.9425C149.865 52.5767 149.056 51.3584 148.193 50.2961C146.509 48.2304 144.232 46.3461 141.567 46.2744C140.536 46.3176 139.508 46.4217 138.49 46.5864C137.027 46.6522 135.561 46.5958 134.107 46.4177C133.754 46.3754 133.396 46.3882 133.046 46.4557C132.637 46.5807 132.258 46.7872 131.931 47.0627C130.716 47.9691 129.612 49.0162 128.643 50.1822C128.018 51.012 127.34 51.8006 126.614 52.543C126.137 53.0182 125.562 53.3824 124.93 53.6095C124.509 53.7275 124.088 53.6432 123.688 53.7739C122.446 54.1659 122.282 55.7889 121.705 56.7417Z" fill="#965D7B"/>
<path opacity="0.1" d="M162.248 68.2032C158.881 68.8228 156.089 66.0954 154.544 64.1056C154.07 63.5013 153.638 62.8647 153.252 62.2002L164.812 64.3839L165.279 64.4724C165.279 64.4724 167.405 67.2589 162.248 68.2032Z" fill="black"/>
<g opacity="0.1">
<path opacity="0.1" d="M118.501 67.0866C118.548 66.5352 118.465 65.9806 118.257 65.4678C118.257 65.5099 118.219 65.5521 118.207 65.5942C118.026 66.1591 118.27 66.7451 118.426 67.3311C118.459 67.2523 118.484 67.1704 118.501 67.0866Z" fill="black"/>
<path opacity="0.1" d="M119.504 60.1855C119.461 60.7685 119.472 61.3542 119.538 61.935C119.581 61.3521 119.57 60.7664 119.504 60.1855Z" fill="black"/>
<path opacity="0.1" d="M148.741 56.2444C148.298 57.1326 147.669 57.9147 146.898 58.5377C145.925 59.2333 144.7 59.4272 143.53 59.7096C142.359 59.9921 141.151 60.4431 140.486 61.438C140.126 62.0778 139.885 62.7777 139.775 63.5036C139.665 64.2309 139.375 64.9192 138.933 65.506C138.448 66.0541 137.598 66.3491 136.967 65.9782C136.613 65.739 136.345 65.3935 136.2 64.9917C135.725 63.9083 135.598 62.7111 135.409 61.5392C135.219 60.3673 134.937 59.17 134.222 58.23C133.506 57.2899 132.239 56.6702 131.115 57.037C130.739 57.1826 130.396 57.4025 130.107 57.6835C129.818 57.9645 129.588 58.3008 129.431 58.6726C129.119 59.4171 128.907 60.1995 128.799 60.9996C128.275 63.8634 127.657 66.7075 126.947 69.5319C126.927 69.6484 126.88 69.7583 126.808 69.8523C126.695 69.9634 126.545 70.028 126.387 70.0335C125.444 70.1558 124.539 69.4982 123.592 69.5656C122.426 69.6499 121.571 70.7797 120.422 70.9652C119.689 71.031 118.953 70.8675 118.317 70.4973C118.024 70.3712 117.762 70.1844 117.547 69.9492C117.448 70.0905 117.383 70.2523 117.356 70.4224C117.329 70.5926 117.341 70.7666 117.391 70.9315C117.576 71.3239 117.909 71.627 118.317 71.7746C118.953 72.1448 119.689 72.3083 120.422 72.2425C121.571 72.057 122.426 70.9272 123.592 70.8429C124.539 70.7755 125.444 71.4331 126.387 71.3109C126.545 71.3054 126.695 71.2407 126.808 71.1296C126.88 71.0356 126.927 70.9257 126.947 70.8092C127.654 67.9988 128.272 65.1547 128.799 62.2769C128.907 61.4768 129.119 60.6944 129.431 59.9499C129.588 59.5782 129.818 59.2418 130.107 58.9608C130.396 58.6798 130.739 58.4599 131.115 58.3143C132.239 57.9475 133.502 58.5672 134.222 59.5073C134.942 60.4474 135.215 61.6488 135.409 62.8165C135.603 63.9842 135.725 65.1856 136.2 66.269C136.345 66.6709 136.613 67.0163 136.967 67.2555C137.598 67.6222 138.448 67.3314 138.933 66.7833C139.375 66.1966 139.665 65.5082 139.775 64.7809C139.885 64.055 140.126 63.3551 140.486 62.7153C141.151 61.7205 142.368 61.2736 143.53 60.9869C144.692 60.7003 145.917 60.5106 146.898 59.815C147.669 59.192 148.298 58.4099 148.741 57.5217C149.365 56.4383 149.945 55.258 149.895 54.006C149.887 53.845 149.87 53.6846 149.844 53.5254C149.641 54.4903 149.268 55.411 148.741 56.2444Z" fill="black"/>
</g>
<path opacity="0.1" d="M149.913 56.3708C150.992 58.2929 151.632 60.4311 151.786 62.6309C148.035 60.5232 144.507 58.2088 142.727 57.4036C139.624 55.9998 128.022 56.2106 123.66 56.3413C124.116 55.5252 124.649 54.7545 125.251 54.0396C126.248 52.8543 127.419 51.828 128.725 50.996C130.453 49.8973 132.388 49.1633 134.409 48.8386C136.431 48.514 138.498 48.6057 140.483 49.1079C142.468 49.6102 144.33 50.5126 145.955 51.7599C147.58 53.0072 148.934 54.5733 149.934 56.3624L149.913 56.3708Z" fill="black"/>
<path opacity="0.1" d="M163.301 66.4158C161.276 67.0397 157.971 65.834 154.544 64.1056C154.07 63.5013 153.638 62.8647 153.252 62.2002L164.812 64.3839C165.578 64.9066 165.772 65.6527 163.301 66.4158Z" fill="black"/>
<path d="M137.675 41.7555C137.675 41.7555 126.624 41.1231 123.517 47.1303L123.016 52.4546L122.174 52.3618L122.006 55.983C122.006 55.983 138.896 55.2453 142.739 56.9821C146.583 58.7189 158.526 67.4704 163.313 65.995C168.099 64.5195 162.892 63.1494 162.892 63.1494C162.892 63.1494 156.303 60.3545 156.303 58.1624C156.303 55.9703 154.67 44.3902 137.675 41.7555Z" fill="#444053"/>
<path opacity="0.1" d="M116.359 239.128C116.359 239.128 123.411 245.978 126.463 245.451C126.463 245.451 117.833 244.714 116.359 239.128Z" fill="black"/>
<path opacity="0.1" d="M114.887 242.303C114.887 242.303 115.518 245.827 117.202 245.481C118.886 245.136 114.887 242.303 114.887 242.303Z" fill="black"/>
<path opacity="0.1" d="M125.938 301.202C125.938 301.202 115.927 309.001 117.616 309.212C119.304 309.422 125.938 301.202 125.938 301.202Z" fill="black"/>
<path d="M139.328 146.419L171.744 141.137V171.868L140.945 170.254L139.328 146.419Z" fill="#463F3A"/>
<path opacity="0.05" d="M139.328 146.419L171.744 141.137V171.868L140.945 170.254L139.328 146.419Z" fill="black"/>
<path d="M171.744 141.137L210.618 144.05L208.467 170.793L171.744 171.868V141.137Z" fill="#463F3A"/>
<path opacity="0.1" d="M171.744 141.137L210.618 144.05L208.467 170.793L171.744 171.868V141.137Z" fill="black"/>
<path d="M183.696 131.758L171.744 141.137L210.618 144.05L216.97 134.452L183.696 131.758Z" fill="#463F3A"/>
<path d="M127.592 136.175L156.774 132.617L171.745 141.137L139.329 146.419L127.592 136.175Z" fill="#463F3A"/>
<path d="M178.85 149.117V191.133L163.665 189.574L157.06 188.899L155.048 188.688L148.447 188.01L139.328 187.074V146.419L171.74 148.628L178.85 149.117Z" fill="#463F3A"/>
<path d="M210.619 144.05V185.025L198.448 187.365L192.529 188.503L178.852 191.133V149.117L210.619 144.05Z" fill="#463F3A"/>
<path opacity="0.05" d="M210.619 144.05V185.025L198.448 187.365L192.529 188.503L178.852 191.133V149.117L210.619 144.05Z" fill="black"/>
<path d="M127.592 155.263L139.329 146.419L178.851 149.117L173.033 158.931L127.592 155.263Z" fill="#463F3A"/>
<path opacity="0.1" d="M127.592 155.263L139.329 146.419L178.851 149.117L173.033 158.931L127.592 155.263Z" fill="white"/>
<path d="M210.619 144.05L178.852 149.117L189.191 158.391L223.219 152.675L210.619 144.05Z" fill="#463F3A"/>
<path opacity="0.1" d="M210.619 144.05L178.852 149.117L189.191 158.391L223.219 152.675L210.619 144.05Z" fill="white"/>
<path opacity="0.1" d="M198.448 187.365L192.529 188.503V179.747L198.074 178.348L198.448 187.365Z" fill="white"/>
<path opacity="0.1" d="M163.666 183.781V189.573L157.061 188.899V183.781H163.666Z" fill="white"/>
<path opacity="0.1" d="M155.048 185.607V188.689L148.447 188.01V185.607H155.048Z" fill="white"/>
<path opacity="0.1" d="M174.876 180.709C170.351 186.505 155.406 182.501 155.406 182.501L144.3 170.899L142.793 169.327L145.74 163.847C145.74 163.847 146.582 164.125 147.988 164.614C155.431 167.219 178.686 175.832 174.876 180.709Z" fill="black"/>
<path d="M174.456 179.865C169.931 185.662 154.986 181.657 154.986 181.657L143.88 170.056L142.373 168.483L145.32 163.003C145.32 163.003 146.162 163.281 147.568 163.77C155.011 166.375 178.266 174.988 174.456 179.865Z" fill="#EFB7B9"/>
<path opacity="0.1" d="M147.55 163.77C146.936 165.541 145.374 168.163 143.863 170.056L142.355 168.483L145.302 163.003C145.302 163.003 146.149 163.281 147.55 163.77Z" fill="black"/>
<path d="M110.782 98.2099C110.782 98.2099 99.7313 102.426 99.6261 114.229C99.6009 121.835 100.023 129.436 100.889 136.993C100.889 136.993 97.7316 154.593 106.678 159.652C115.623 164.71 123.938 168.926 123.938 168.926C123.938 168.926 138.23 171.245 139.986 171.982C141.741 172.72 147.841 163.235 146.894 161.654C145.947 160.073 132.934 156.174 131.389 153.539C129.844 150.904 126.039 149.13 126.039 149.13C126.039 149.13 122.157 146.478 122.001 144.265C121.846 142.052 122.991 140.471 123.315 139.522C123.639 138.574 124.814 129.3 124.814 129.3C124.814 129.3 131.095 96.3972 110.782 98.2099Z" fill="#DCE6F2"/>
<path opacity="0.1" d="M115.834 137.288C115.834 137.288 100.889 138.974 102.046 144.244C102.046 144.244 107.725 138.928 115.834 137.288Z" fill="black"/>
<path opacity="0.1" d="M115.833 139.396C115.833 139.396 107.35 145.614 108.908 146.036C110.465 146.458 115.833 139.396 115.833 139.396Z" fill="black"/>
<path opacity="0.1" d="M119.622 141.926C119.622 141.926 117.201 146.285 118.569 146.057C119.938 145.829 119.622 141.926 119.622 141.926Z" fill="black"/>
<path d="M275.225 47.3791C275.225 47.3791 259.228 46.4138 261.097 57.6525C261.097 57.6525 260.723 59.638 262.52 60.5401C262.52 60.5401 262.55 59.697 264.162 59.9879C264.736 60.0847 265.32 60.113 265.901 60.0722C266.688 60.0196 267.436 59.7102 268.031 59.1912C268.031 59.1912 272.531 57.3321 274.282 49.9633C274.282 49.9633 275.579 48.3529 275.545 47.9398L272.843 49.0991C272.843 49.0991 273.765 51.0509 273.036 52.6739C273.036 52.6739 272.952 49.1708 272.43 49.2509C272.325 49.2509 271.028 49.9296 271.028 49.9296C271.028 49.9296 272.615 53.3273 271.416 55.8018C271.416 55.8018 271.87 51.6116 270.531 50.1741L268.629 51.287C268.629 51.287 270.485 54.7985 269.226 57.6651C269.226 57.6651 269.551 53.2683 268.229 51.5568L266.503 52.9015C266.503 52.9015 268.25 56.3667 267.185 58.7443C267.185 58.7443 267.046 53.6266 266.128 53.2388C266.128 53.2388 264.621 54.5709 264.394 55.1189C264.394 55.1189 265.585 57.6483 264.844 58.9593C264.844 58.9593 264.389 55.5489 264.002 55.532C264.002 55.532 262.499 57.7916 262.343 59.326C262.416 57.8955 262.862 56.509 263.636 55.3044C262.77 55.4685 261.97 55.8833 261.337 56.4974C261.337 56.4974 261.569 54.8997 264.006 54.7606C264.006 54.7606 265.269 53.0449 265.581 52.9395C265.581 52.9395 263.156 52.7371 261.687 53.3905C261.687 53.3905 262.979 51.8856 266.027 52.5474L267.711 51.1563C267.711 51.1563 264.52 50.7347 263.164 51.2027C263.164 51.2027 264.722 49.8705 268.17 50.8401L270.022 49.7314C270.022 49.7314 267.303 49.1413 265.682 49.3562C265.682 49.3562 267.391 48.433 270.565 49.4321L271.891 48.8377C271.891 48.8377 269.896 48.4457 269.315 48.3825C268.734 48.3192 268.7 48.159 268.7 48.159C269.963 47.9486 271.259 48.0946 272.443 48.5806C272.443 48.5806 275.284 47.5562 275.225 47.3791Z" fill="#463F3A"/>
<path opacity="0.1" d="M323.833 103.589C323.833 103.589 307.835 102.624 309.705 113.862C309.705 113.862 309.33 115.848 311.128 116.75C311.128 116.75 311.157 115.907 312.774 116.198C313.348 116.295 313.931 116.323 314.512 116.282C315.29 116.226 316.029 115.918 316.617 115.405C316.617 115.405 321.122 113.542 322.873 106.173C322.873 106.173 324.165 104.567 324.115 104.154L321.412 105.309C321.412 105.309 322.334 107.261 321.61 108.884C321.61 108.884 321.522 105.381 321.004 105.461C320.899 105.461 319.598 106.14 319.598 106.14C319.598 106.14 321.189 109.541 319.989 112.012C319.989 112.012 320.444 107.822 319.101 106.384L317.219 107.484C317.219 107.484 319.076 110.996 317.817 113.862C317.817 113.862 318.141 109.466 316.819 107.754L315.097 109.103C315.097 109.103 316.84 112.564 315.779 114.942C315.779 114.942 315.641 109.824 314.723 109.436C314.723 109.436 313.216 110.768 312.984 111.316C312.984 111.316 314.18 113.846 313.439 115.157C313.439 115.157 312.984 111.746 312.597 111.729C312.597 111.729 311.094 113.989 310.938 115.523C311.013 114.093 311.46 112.706 312.235 111.502C311.367 111.666 310.567 112.081 309.932 112.695C309.932 112.695 310.168 111.097 312.605 110.958C312.605 110.958 313.847 109.242 314.18 109.137C314.18 109.137 311.755 108.934 310.286 109.588C310.286 109.588 311.578 108.083 314.622 108.766L316.306 107.375C316.306 107.375 313.11 106.953 311.759 107.421C311.759 107.421 313.317 106.089 316.765 107.059L318.617 105.95C318.617 105.95 315.893 105.364 314.272 105.575C314.272 105.575 315.986 104.651 319.16 105.651L320.486 105.056C320.486 105.056 318.491 104.664 317.905 104.601C317.32 104.538 317.291 104.377 317.291 104.377C318.555 104.167 319.852 104.313 321.038 104.799C321.038 104.799 323.883 103.766 323.833 103.589Z" fill="#463F3A"/>
<path opacity="0.1" d="M226.649 93.6112C226.649 93.6112 230.333 77.9756 218.949 77.9208C218.949 77.9208 217.059 77.2126 215.868 78.8314C215.868 78.8314 216.68 79.0042 216.129 80.5471C215.938 81.0927 215.811 81.6585 215.75 82.2334C215.668 83.017 215.844 83.8058 216.251 84.4802C216.251 84.4802 217.316 89.2438 224.25 92.2285C224.25 92.2285 225.614 93.7798 226.026 93.7966L225.353 90.9343C225.353 90.9343 223.273 91.5118 221.8 90.5127C221.8 90.5127 225.264 91.0228 225.268 90.5127C225.268 90.4073 224.847 89.012 224.847 89.012C224.847 89.012 221.231 89.9984 219 88.3923C219 88.3923 223.046 89.5558 224.692 88.4808L223.934 86.4068C223.934 86.4068 220.145 87.6419 217.552 85.9093C217.552 85.9093 221.825 86.9801 223.736 85.9683L222.705 84.0376C222.705 84.0376 219 85.1674 216.84 83.713C216.84 83.713 221.892 84.4465 222.439 83.6118C222.439 83.6118 221.387 81.8961 220.886 81.5757C220.886 81.5757 218.209 82.3261 217.03 81.3692C217.03 81.3692 220.461 81.4998 220.541 81.1373C220.541 81.1373 218.575 79.2698 217.076 78.8483C218.473 79.1667 219.763 79.8437 220.819 80.8127C220.803 79.9292 220.531 79.0694 220.036 78.3382C220.036 78.3382 221.568 78.844 221.299 81.2891C221.299 81.2891 222.772 82.8067 222.818 83.1523C222.818 83.1523 223.429 80.7958 223.037 79.2319C223.037 79.2319 224.3 80.7663 223.109 83.654L224.187 85.5721C224.187 85.5721 225.163 82.4947 224.915 81.0783C224.915 81.0783 225.963 82.8404 224.418 86.078L225.197 88.0972C225.197 88.0972 226.237 85.5088 226.304 83.8816C226.304 83.8816 226.923 85.7281 225.395 88.6916L225.757 90.0996C225.757 90.0996 226.481 88.1984 226.641 87.6335C226.801 87.0686 226.965 87.0644 226.965 87.0644C226.959 88.3469 226.596 89.6022 225.917 90.6898C225.917 90.6898 226.468 93.6322 226.649 93.6112Z" fill="#463F3A"/>
<path opacity="0.1" d="M191.615 98.9392C191.615 98.9392 178.766 89.3151 174.173 99.7402C174.173 99.7402 172.771 101.195 173.778 102.936C173.778 102.936 174.257 102.257 175.461 103.382C175.888 103.78 176.36 104.125 176.868 104.411C177.555 104.794 178.349 104.942 179.128 104.833C179.128 104.833 183.911 105.756 189.417 100.566C189.417 100.566 191.383 99.9341 191.568 99.5631L188.668 99.0531C188.668 99.0531 188.365 101.19 186.87 102.147C186.87 102.147 188.718 99.1711 188.238 98.9561C188.142 98.9097 186.693 98.7453 186.693 98.7453C186.693 98.7453 186.154 102.463 183.797 103.867C183.797 103.867 186.479 100.617 186.146 98.6779L183.944 98.5598C183.944 98.5598 183.57 102.518 180.943 104.221C180.943 104.221 183.624 100.727 183.469 98.5683L181.288 98.7453C181.288 98.7453 180.846 102.594 178.653 103.994C178.653 103.994 181.343 99.6432 180.791 98.817C180.791 98.817 178.8 99.0994 178.307 99.4282C178.307 99.4282 177.924 102.185 176.577 102.885C176.577 102.885 178.072 99.7866 177.768 99.5716C177.768 99.5716 175.272 100.63 174.291 101.835C175.14 100.681 176.274 99.7684 177.583 99.188C176.769 98.849 175.874 98.7553 175.007 98.9182C175.007 98.9182 176.076 97.7125 178.189 98.9392C178.189 98.9392 180.168 98.1931 180.505 98.2858C180.505 98.2858 178.589 96.7809 177.002 96.5195C177.002 96.5195 178.914 95.9715 181.082 98.2057L183.267 97.9823C183.267 97.9823 180.837 95.8745 179.444 95.5204C179.444 95.5204 181.477 95.2633 183.822 97.9697L185.978 98.0666C185.978 98.0666 184.028 96.0769 182.559 95.3602C182.559 95.3602 184.492 95.5288 186.596 98.113L188.032 98.3448C188.032 98.3448 186.58 96.92 186.125 96.549C185.67 96.178 185.733 96.0221 185.733 96.0221C186.905 96.5414 187.909 97.3762 188.634 98.4334C188.634 98.4334 191.56 99.1121 191.615 98.9392Z" fill="#463F3A"/>
<path opacity="0.1" d="M234.39 9.52314C234.39 9.52314 221.542 -0.105205 216.949 10.3241C216.949 10.3241 215.547 11.7785 216.553 13.5195C216.553 13.5195 217.033 12.8408 218.237 13.9663C218.666 14.3616 219.139 14.7054 219.647 14.9907C220.335 15.3744 221.129 15.5224 221.908 15.4123C221.908 15.4123 226.69 16.3355 232.197 11.1419C232.197 11.1419 234.163 10.5138 234.344 10.1386L231.443 9.63696C231.443 9.63696 231.144 11.7743 229.646 12.7312C229.646 12.7312 231.498 9.755 231.018 9.54001C230.921 9.49364 229.473 9.32923 229.473 9.32923C229.473 9.32923 228.917 13.0558 226.56 14.4511C226.56 14.4511 229.237 11.2009 228.909 9.26178L226.707 9.14374C226.707 9.14374 226.328 13.1022 223.705 14.801C223.705 14.801 226.387 11.3063 226.231 9.14796L224.055 9.32501C224.055 9.32501 223.609 13.178 221.415 14.5776C221.415 14.5776 224.11 10.2271 223.558 9.40089C223.558 9.40089 221.567 9.68333 221.074 10.0121C221.074 10.0121 220.691 12.7691 219.344 13.4689C219.344 13.4689 220.839 10.3705 220.535 10.1513C220.535 10.1513 218.039 11.2136 217.058 12.4192C217.905 11.2636 219.041 10.3508 220.35 9.77186C219.535 9.43042 218.638 9.3366 217.77 9.50207C217.77 9.50207 218.843 8.29642 220.956 9.52314C220.956 9.52314 222.935 8.77277 223.272 8.86973C223.272 8.86973 221.356 7.36478 219.769 7.0992C219.769 7.0992 221.676 6.55539 223.844 8.78542L226.029 8.56199C226.029 8.56199 223.604 6.45421 222.207 6.09589C222.207 6.09589 224.24 5.84296 226.589 8.54935L228.745 8.64209C228.745 8.64209 226.795 6.65235 225.322 5.93992C225.322 5.93992 227.259 6.10854 229.363 8.69268L230.795 8.92453C230.795 8.92453 229.338 7.51654 228.884 7.154C228.429 6.79146 228.492 6.63127 228.492 6.63127C229.664 7.15003 230.668 7.98492 231.393 9.04257C231.393 9.04257 234.318 9.68334 234.39 9.52314Z" fill="#463F3A"/>
<path opacity="0.1" d="M283.487 21.7183C283.487 21.7183 278.351 6.49591 268.664 12.4778C268.664 12.4778 266.685 12.8994 266.529 14.8849C266.529 14.8849 267.308 14.5982 267.653 16.2001C267.782 16.77 267.975 17.3231 268.23 17.8484C268.578 18.5555 269.145 19.1308 269.847 19.4883C269.847 19.4883 273.265 22.9661 280.742 21.8153C280.742 21.8153 282.716 22.4139 283.078 22.2073L280.973 20.1375C280.973 20.1375 279.517 21.7267 277.74 21.6635C277.74 21.6635 280.952 20.2639 280.687 19.8129C280.632 19.7243 279.533 18.7674 279.533 18.7674C279.533 18.7674 276.982 21.5202 274.246 21.3389C274.246 21.3389 278.292 20.1838 279.117 18.388L277.374 17.0433C277.374 17.0433 274.823 20.0869 271.695 19.9941C271.695 19.9941 275.905 18.6409 276.97 16.7692L275.075 15.6774C275.075 15.6774 272.549 18.5988 269.931 18.5061C269.931 18.5061 274.612 16.4531 274.625 15.4582C274.625 15.4582 272.827 14.5603 272.234 14.5519C272.234 14.5519 270.356 16.6048 268.866 16.4193C268.866 16.4193 271.846 14.712 271.72 14.3622C271.72 14.3622 269.068 13.8183 267.573 14.2568C268.925 13.7855 270.376 13.6765 271.783 13.9406C271.303 13.1982 270.617 12.6122 269.809 12.2544C269.809 12.2544 271.375 11.8708 272.423 14.0797C272.423 14.0797 274.477 14.5898 274.696 14.8554C274.696 14.8554 273.972 12.5326 272.815 11.4113C272.815 11.4113 274.696 12.0478 275.21 15.1294L277.138 16.1833C277.138 16.1833 276.342 13.0595 275.383 11.9677C275.383 11.9677 277.205 12.912 277.601 16.4742L279.327 17.7768C279.327 17.7768 278.847 15.0282 278.039 13.6034C278.039 13.6034 279.538 14.8427 279.807 18.1688L280.855 19.1721C280.855 19.1721 280.468 17.1739 280.308 16.609C280.148 16.0442 280.279 16.0062 280.279 16.0062C280.948 17.0998 281.302 18.3575 281.302 19.64C281.302 19.64 283.339 21.8279 283.487 21.7183Z" fill="#463F3A"/>
<path opacity="0.1" d="M249.967 22.4687C249.967 22.4687 234.012 20.6897 235.329 32.0254C235.329 32.0254 234.854 33.9898 236.592 34.9763C236.592 34.9763 236.664 34.1332 238.276 34.5126C238.846 34.6353 239.428 34.6933 240.011 34.6854C240.798 34.6712 241.559 34.4003 242.179 33.914C242.179 33.914 246.772 32.2825 248.914 25.0107C248.914 25.0107 250.287 23.472 250.257 23.0547L247.5 24.0748C247.5 24.0748 248.342 26.0688 247.5 27.6539C247.5 27.6539 247.588 24.1507 247.079 24.2055C246.974 24.2055 245.643 24.8126 245.643 24.8126C245.643 24.8126 247.058 28.2904 245.736 30.7144C245.736 30.7144 246.401 26.5494 245.134 25.0486L243.176 26.0604C243.176 26.0604 244.86 29.6647 243.45 32.4638C243.45 32.4638 243.997 28.0881 242.764 26.3133L240.975 27.578C240.975 27.578 242.541 31.1233 241.358 33.446C241.358 33.446 241.48 28.3283 240.583 27.8941C240.583 27.8941 239.009 29.1588 238.752 29.6815C238.752 29.6815 239.817 32.253 239.013 33.5388C239.013 33.5388 238.731 30.1115 238.36 30.0778C238.36 30.0778 236.744 32.2572 236.508 33.7959C236.654 32.3694 237.171 31.0061 238.007 29.8417C237.133 29.9626 236.314 30.3362 235.649 30.9167C235.649 30.9167 235.961 29.3359 238.403 29.319C238.403 29.319 239.729 27.6707 240.086 27.5822C240.086 27.5822 237.674 27.2576 236.171 27.8351C236.171 27.8351 237.539 26.3934 240.545 27.2323L242.318 25.9297C242.318 25.9297 239.114 25.2805 237.758 25.702C237.758 25.702 239.383 24.4374 242.777 25.5967L244.684 24.5807C244.684 24.5807 241.993 23.8556 240.364 23.9863C240.364 23.9863 242.12 23.1432 245.239 24.3109L246.595 23.784C246.595 23.784 244.62 23.2907 244.039 23.198C243.459 23.1053 243.437 22.9451 243.437 22.9451C244.71 22.7988 245.998 23.009 247.159 23.5521C247.159 23.5521 249.996 22.6458 249.967 22.4687Z" fill="#463F3A"/>
<path opacity="0.1" d="M389.566 146.479C389.566 146.479 373.619 144.7 374.937 156.023C374.937 156.023 374.461 157.987 376.2 158.974C376.2 158.974 376.271 158.13 377.884 158.506C378.453 158.633 379.035 158.691 379.618 158.678C380.406 158.666 381.168 158.395 381.786 157.907C381.786 157.907 386.379 156.276 388.501 149.008C388.501 149.008 389.873 147.465 389.844 147.052L387.086 148.068C387.086 148.068 387.928 150.066 387.086 151.651C387.086 151.651 387.175 148.144 386.665 148.203C386.56 148.203 385.23 148.806 385.23 148.806C385.23 148.806 386.644 152.283 385.322 154.707C385.322 154.707 385.988 150.547 384.72 149.042L382.763 150.058C382.763 150.058 384.447 153.662 383.041 156.461C383.041 156.461 383.584 152.085 382.35 150.306L380.561 151.571C380.561 151.571 382.127 155.116 380.944 157.435C380.944 157.435 381.066 152.317 380.17 151.887C380.17 151.887 378.599 153.152 378.338 153.675C378.338 153.675 379.408 156.246 378.599 157.532C378.599 157.532 378.317 154.105 377.947 154.071C377.947 154.071 376.33 156.25 376.094 157.789C376.24 156.362 376.757 154.999 377.593 153.835C376.719 153.954 375.899 154.327 375.236 154.91C375.236 154.91 375.547 153.325 377.989 153.308C377.989 153.308 379.319 151.66 379.673 151.575C379.673 151.575 377.261 151.246 375.758 151.824C375.758 151.824 377.126 150.386 380.136 151.225L381.904 149.923C381.904 149.923 378.738 149.324 377.362 149.737C377.362 149.737 378.987 148.473 382.38 149.628L384.287 148.616C384.287 148.616 381.597 147.891 379.968 148.022C379.968 148.022 381.723 147.178 384.843 148.346L386.198 147.815C386.198 147.815 384.224 147.322 383.643 147.233C383.062 147.145 383.041 146.98 383.041 146.98C384.313 146.831 385.602 147.04 386.762 147.583C386.762 147.583 389.608 146.66 389.566 146.479Z" fill="#463F3A"/>
<path opacity="0.1" d="M413.945 161.393C413.945 161.393 397.998 159.618 399.316 170.937C399.316 170.937 398.844 172.902 400.579 173.888C400.579 173.888 400.65 173.045 402.263 173.424C402.831 173.548 403.411 173.605 403.993 173.593C404.776 173.577 405.534 173.308 406.152 172.826C406.152 172.826 410.741 171.194 412.863 163.922C412.863 163.922 414.24 162.384 414.206 161.966L411.448 162.982C411.448 162.982 412.29 164.981 411.448 166.566C411.448 166.566 411.537 163.063 411.027 163.117C410.922 163.117 409.592 163.72 409.592 163.72C409.592 163.72 411.006 167.198 409.685 169.622C409.685 169.622 410.35 165.461 409.082 163.96L407.125 164.972C407.125 164.972 408.809 168.576 407.403 171.376C407.403 171.376 407.946 167 406.712 165.225L404.923 166.49C404.923 166.49 406.489 170.035 405.31 172.358C405.31 172.358 405.428 167.236 404.532 166.806C404.532 166.806 402.961 168.071 402.7 168.593C402.7 168.593 403.77 171.165 402.961 172.451C402.961 172.451 402.679 169.023 402.309 168.99C402.309 168.99 400.692 171.169 400.461 172.708C400.606 171.282 401.122 169.919 401.955 168.754C401.082 168.874 400.262 169.248 399.598 169.828C399.598 169.828 399.913 168.243 402.355 168.231C402.355 168.231 403.681 166.583 404.039 166.494C404.039 166.494 401.627 166.169 400.124 166.747C400.124 166.747 401.492 165.305 404.502 166.144L406.27 164.841C406.27 164.841 403.105 164.243 401.728 164.656C401.728 164.656 403.353 163.391 406.746 164.551L408.653 163.535C408.653 163.535 405.963 162.81 404.334 162.94C404.334 162.94 406.089 162.097 409.209 163.265L410.564 162.738C410.564 162.738 408.59 162.245 408.013 162.152C407.436 162.059 407.407 161.899 407.407 161.899C408.68 161.753 409.968 161.963 411.128 162.506C411.128 162.506 413.987 161.574 413.945 161.393Z" fill="#463F3A"/>
<path opacity="0.1" d="M359.82 35.7644C359.82 35.7644 346.971 26.1403 342.378 36.5654C342.378 36.5654 340.976 38.0198 341.983 39.7608C341.983 39.7608 342.463 39.0821 343.667 40.2076C344.093 40.6049 344.565 40.9502 345.073 41.2362C345.76 41.6193 346.554 41.7673 347.333 41.6578C347.333 41.6578 352.116 42.581 357.626 37.3916C357.626 37.3916 359.588 36.7593 359.773 36.3883L356.881 35.8656C356.881 35.8656 356.578 38.0029 355.084 38.9598C355.084 38.9598 356.932 35.9836 356.452 35.7687C356.355 35.7223 354.911 35.5579 354.911 35.5579C354.911 35.5579 354.368 39.276 352.01 40.6798C352.01 40.6798 354.692 37.4296 354.359 35.4904L352.158 35.3724C352.158 35.3724 351.783 39.3308 349.156 41.0339C349.156 41.0339 351.842 37.5392 351.682 35.3808L349.501 35.5579C349.501 35.5579 349.08 39.4067 346.866 40.8062C346.866 40.8062 349.56 36.4558 349.005 35.6295C349.005 35.6295 347.013 35.912 346.521 36.2408C346.521 36.2408 346.142 38.9978 344.795 39.6976C344.795 39.6976 346.285 36.5991 345.982 36.3841C345.982 36.3841 343.486 37.4422 342.505 38.6479C343.353 37.4935 344.488 36.5809 345.797 36.0005C344.982 35.6616 344.087 35.5678 343.22 35.7307C343.22 35.7307 344.294 34.5251 346.407 35.7518C346.407 35.7518 348.382 35.0056 348.718 35.0984C348.718 35.0984 346.803 33.5934 345.216 33.3321C345.216 33.3321 347.127 32.784 349.295 35.0183L351.48 34.7949C351.48 34.7949 349.055 32.6871 347.657 32.333C347.657 32.333 349.691 32.0758 352.036 34.7822L354.195 34.8792C354.195 34.8792 352.242 32.8894 350.773 32.1728C350.773 32.1728 352.709 32.3414 354.81 34.9255L356.246 35.1574C356.246 35.1574 354.793 33.7325 354.338 33.3616C353.884 32.9906 353.951 32.8683 353.951 32.8683C355.121 33.3885 356.123 34.2232 356.848 35.2796C356.848 35.2796 359.765 35.9373 359.82 35.7644Z" fill="#463F3A"/>
<path opacity="0.1" d="M369.746 105.246C369.746 105.246 365.318 89.8042 355.357 95.3477C355.357 95.3477 353.362 95.6554 353.113 97.6536C353.113 97.6536 353.905 97.4049 354.178 99.0195C354.28 99.5995 354.449 100.166 354.684 100.706C354.996 101.432 355.537 102.036 356.224 102.426C356.224 102.426 359.483 106.051 367.002 105.242C367.002 105.242 368.946 105.925 369.317 105.739L367.326 103.572C367.326 103.572 365.798 105.098 364.029 104.955C364.029 104.955 367.296 103.69 367.044 103.239C366.993 103.147 365.941 102.139 365.941 102.139C365.941 102.139 363.272 104.778 360.544 104.47C360.544 104.47 364.64 103.501 365.541 101.755L363.857 100.331C363.857 100.331 361.171 103.256 358.051 103.028C358.051 103.028 362.295 101.861 363.465 100.044L361.621 98.8677C361.621 98.8677 358.948 101.671 356.355 101.46C356.355 101.46 361.125 99.6181 361.184 98.6274C361.184 98.6274 359.424 97.6494 358.83 97.6157C358.83 97.6157 356.864 99.5801 355.37 99.3272C355.37 99.3272 358.426 97.7548 358.317 97.4007C358.317 97.4007 355.69 96.7389 354.178 97.1056C355.547 96.6992 356.998 96.657 358.388 96.9834C357.943 96.2206 357.284 95.6051 356.494 95.2128C356.494 95.2128 358.077 94.8966 359.02 97.152C359.02 97.152 361.045 97.7506 361.255 98.0288C361.255 98.0288 360.636 95.6723 359.529 94.5046C359.529 94.5046 361.381 95.2212 361.756 98.3239L363.634 99.4663C363.634 99.4663 362.977 96.3046 362.068 95.1917C362.068 95.1917 363.844 96.2161 364.084 99.7909L365.768 101.169C365.768 101.169 365.41 98.404 364.669 96.9538C364.669 96.9538 366.113 98.2607 366.231 101.591L367.233 102.645C367.233 102.645 366.938 100.63 366.812 100.057C366.686 99.4832 366.812 99.4031 366.812 99.4031C367.435 100.524 367.734 101.797 367.675 103.079C367.675 103.079 369.595 105.347 369.746 105.246Z" fill="#463F3A"/>
<path opacity="0.1" d="M271.059 140.041C271.059 140.041 262.459 126.475 254.472 134.595C254.472 134.595 252.645 135.438 252.965 137.44C252.965 137.44 253.66 136.976 254.376 138.452C254.633 138.975 254.952 139.465 255.327 139.91C255.829 140.519 256.517 140.946 257.285 141.125C257.285 141.125 261.431 143.688 268.42 140.787C268.42 140.787 270.478 140.897 270.781 140.614L268.256 139.097C268.256 139.097 267.216 140.994 265.477 141.352C265.477 141.352 268.264 139.244 267.889 138.857C267.818 138.781 266.521 138.115 266.521 138.115C266.521 138.115 264.698 141.394 261.995 141.871C261.995 141.871 265.654 139.784 266.033 137.853L264.016 136.964C264.016 136.964 262.261 140.526 259.204 141.179C259.204 141.179 262.951 138.865 263.562 136.791L261.457 136.184C261.457 136.184 259.68 139.628 257.133 140.155C257.133 140.155 261.191 137.044 260.968 136.074C260.968 136.074 259.006 135.632 258.442 135.767C258.442 135.767 257.108 138.207 255.601 138.384C255.601 138.384 258.093 136.015 257.887 135.703C257.887 135.703 255.18 135.809 253.833 136.589C255.034 135.809 256.419 135.358 257.849 135.282C257.209 134.675 256.405 134.269 255.538 134.114C255.538 134.114 256.965 133.368 258.484 135.265C258.484 135.265 260.589 135.265 260.88 135.476C260.88 135.476 259.617 133.368 258.232 132.58C258.232 132.58 260.21 132.748 261.44 135.619L263.566 136.184C263.566 136.184 262.046 133.338 260.863 132.525C260.863 132.525 262.854 133.005 264.088 136.374L266.075 137.217C266.075 137.217 264.955 134.666 263.831 133.473C263.831 133.473 265.582 134.316 266.631 137.482L267.893 138.212C267.893 138.212 267.051 136.361 266.753 135.851C266.454 135.341 266.572 135.223 266.572 135.223C267.483 136.124 268.125 137.261 268.428 138.507C268.428 138.507 270.946 140.184 271.059 140.041Z" fill="#463F3A"/>
<path d="M327.584 70.7289C327.584 70.7289 319.404 56.906 311.165 64.7723C311.165 64.7723 309.313 65.5732 309.574 67.5714C309.574 67.5714 310.277 67.1245 310.951 68.6211C311.191 69.153 311.495 69.6541 311.856 70.1134C312.339 70.735 313.014 71.1796 313.775 71.3781C313.775 71.3781 317.838 74.0676 324.915 71.3781C324.915 71.3781 326.969 71.5509 327.281 71.2769L324.809 69.6834C324.809 69.6834 323.715 71.5425 321.964 71.8502C321.964 71.8502 324.814 69.8141 324.456 69.4305C324.38 69.3504 323.109 68.6421 323.109 68.6421C323.109 68.6421 321.185 71.8671 318.478 72.2591C318.478 72.2591 322.199 70.2862 322.633 68.3724L320.646 67.4365C320.646 67.4365 318.781 70.9481 315.704 71.5087C315.704 71.5087 319.522 69.3124 320.195 67.2594L318.116 66.5849C318.116 66.5849 316.23 69.9574 313.67 70.4211C313.67 70.4211 317.821 67.4365 317.627 66.4627C317.627 66.4627 315.682 65.9568 315.102 66.0749C315.102 66.0749 313.691 68.4735 312.18 68.6042C312.18 68.6042 314.744 66.3194 314.55 65.999C314.55 65.999 311.839 66.0201 310.471 66.7578C311.696 66.0175 313.094 65.6106 314.525 65.5774C313.903 64.9508 313.111 64.52 312.247 64.3381C312.247 64.3381 313.7 63.6341 315.194 65.5774C315.194 65.5774 317.299 65.6491 317.581 65.8641C317.581 65.8641 316.39 63.7563 315.026 62.8879C315.026 62.8879 316.996 63.1155 318.137 66.0243L320.242 66.6566C320.242 66.6566 318.815 63.7647 317.653 62.9132C317.653 62.9132 319.631 63.457 320.76 66.859L322.717 67.7737C322.717 67.7737 321.677 65.1896 320.612 63.9797C320.612 63.9797 322.334 64.8776 323.29 68.073L324.523 68.8403C324.523 68.8403 323.732 66.9643 323.454 66.4458C323.176 65.9273 323.294 65.8135 323.294 65.8135C324.176 66.7423 324.784 67.8981 325.049 69.1522C325.049 69.1522 327.462 70.868 327.584 70.7289Z" fill="#463F3A"/>
<path d="M275.833 99.7945C275.833 99.7945 276.254 83.7332 265.111 85.997C265.111 85.997 263.115 85.6892 262.273 87.5188C262.273 87.5188 263.115 87.5188 262.88 89.1418C262.803 89.7205 262.794 90.3063 262.854 90.887C262.931 91.6747 263.263 92.4154 263.802 92.9948C263.802 92.9948 265.81 97.438 273.223 98.9472C273.223 98.9472 274.869 100.191 275.282 100.123L274.019 97.4591C274.019 97.4591 272.103 98.4455 270.457 97.7753C270.457 97.7753 273.952 97.5687 273.855 97.0544C273.855 96.949 273.131 95.6675 273.131 95.6675C273.131 95.6675 269.788 97.3748 267.283 96.2534C267.283 96.2534 271.493 96.5696 272.87 95.1827L271.695 93.3152C271.695 93.3152 268.251 95.2881 265.347 94.1246C265.347 94.1246 269.746 94.3016 271.413 92.9231L270.011 91.2369C270.011 91.2369 266.614 93.1002 264.206 92.1138C264.206 92.1138 269.308 91.806 269.679 90.8744C269.679 90.8744 268.298 89.4116 267.742 89.1881C267.742 89.1881 265.275 90.4528 263.928 89.7699C263.928 89.7699 267.296 89.205 267.317 88.8298C267.317 88.8298 265.014 87.4007 263.461 87.2953C264.893 87.321 266.294 87.7222 267.523 88.4588C267.331 87.5972 266.892 86.8104 266.26 86.1951C266.26 86.1951 267.864 86.3764 268.083 88.8087C268.083 88.8087 269.839 89.9975 269.952 90.3263C269.952 90.3263 270.074 87.894 269.371 86.4438C269.371 86.4438 270.92 87.6874 270.34 90.7563L271.783 92.4173C271.783 92.4173 272.112 89.205 271.586 87.8687C271.586 87.8687 272.966 89.3821 272.116 92.8641L273.282 94.681C273.282 94.681 273.779 91.9367 273.514 90.3221C273.514 90.3221 274.49 92.0084 273.598 95.2164L274.238 96.5232C274.238 96.5232 274.562 94.5124 274.604 93.9264C274.646 93.3405 274.806 93.3025 274.806 93.3025C275.06 94.5601 274.959 95.8634 274.516 97.067C274.516 97.067 275.648 99.8493 275.833 99.7945Z" fill="#463F3A"/>
<path opacity="0.1" d="M294.255 303.879C300.516 303.879 305.592 303.02 305.592 301.961C305.592 300.902 300.516 300.043 294.255 300.043C287.994 300.043 282.918 300.902 282.918 301.961C282.918 303.02 287.994 303.879 294.255 303.879Z" fill="#463F3A"/>
<path opacity="0.1" d="M252.927 333C259.188 333 264.264 332.141 264.264 331.082C264.264 330.023 259.188 329.164 252.927 329.164C246.666 329.164 241.59 330.023 241.59 331.082C241.59 332.141 246.666 333 252.927 333Z" fill="#463F3A"/>
<path opacity="0.1" d="M39.2101 318.081C45.4714 318.081 50.5472 317.223 50.5472 316.163C50.5472 315.104 45.4714 314.245 39.2101 314.245C32.9488 314.245 27.873 315.104 27.873 316.163C27.873 317.223 32.9488 318.081 39.2101 318.081Z" fill="#463F3A"/>
<path opacity="0.1" d="M338.917 331.082C345.178 331.082 350.254 330.223 350.254 329.164C350.254 328.105 345.178 327.246 338.917 327.246C332.656 327.246 327.58 328.105 327.58 329.164C327.58 330.223 332.656 331.082 338.917 331.082Z" fill="#463F3A"/>
<path d="M350.721 307.694C360.07 307.694 367.648 306.411 367.648 304.828C367.648 303.244 360.07 301.961 350.721 301.961C341.372 301.961 333.793 303.244 333.793 304.828C333.793 306.411 341.372 307.694 350.721 307.694Z" fill="#463F3A"/>
<path d="M357.741 300.135C358.513 299.507 359.076 298.656 359.353 297.699C359.563 296.729 359.151 295.57 358.229 295.216C357.193 294.82 356.086 295.536 355.244 296.261C354.402 296.986 353.447 297.817 352.348 297.665C352.912 297.152 353.334 296.502 353.573 295.777C353.812 295.052 353.86 294.278 353.712 293.53C353.664 293.219 353.533 292.928 353.333 292.686C352.756 292.071 351.716 292.337 351.026 292.821C348.837 294.364 348.226 297.34 348.214 300.022C347.995 299.056 348.18 298.049 348.176 297.071C348.172 296.093 347.898 294.963 347.06 294.449C346.546 294.161 345.965 294.016 345.376 294.027C344.391 293.993 343.292 294.09 342.623 294.811C341.781 295.705 342.004 297.21 342.728 298.184C343.452 299.157 344.56 299.785 345.578 300.468C346.394 300.956 347.09 301.62 347.616 302.412C347.676 302.522 347.725 302.638 347.763 302.757H353.935C355.317 302.061 356.597 301.179 357.741 300.135Z" fill="#463F3A"/>
<path d="M31.5996 307.247C31.5996 307.247 38.0617 307.049 40.0193 305.658C41.9769 304.267 49.9671 302.61 50.4513 304.84C50.9354 307.07 60.1676 315.923 52.8677 315.982C45.5679 316.041 35.9063 314.844 33.9613 313.655C32.0164 312.466 31.5996 307.247 31.5996 307.247Z" fill="#A8A8A8"/>
<path opacity="0.2" d="M52.9898 315.206C45.6899 315.265 36.0284 314.068 34.0834 312.879C32.6016 311.977 32.0122 308.735 31.8143 307.238H31.5996C31.5996 307.238 32.0206 312.461 33.9529 313.646C35.8852 314.831 45.5594 316.032 52.8593 315.973C54.9642 315.973 55.6925 315.206 55.6546 314.093C55.3599 314.772 54.5559 315.193 52.9898 315.206Z" fill="black"/>
</g>
<defs>
<linearGradient id="paint0_linear" x1="93.8753" y1="182.711" x2="225.277" y2="182.711" gradientUnits="userSpaceOnUse">
<stop stop-color="#808080" stop-opacity="0.25"/>
<stop offset="0.54" stop-color="#808080" stop-opacity="0.12"/>
<stop offset="1" stop-color="#808080" stop-opacity="0.1"/>
</linearGradient>
<clipPath id="clip0">
<rect width="425" height="333" fill="white"/>
</clipPath>
</defs>
</svg>
