<svg width="236" height="102" viewBox="0 0 236 102" fill="none" xmlns="http://www.w3.org/2000/svg">
<path d="M106.368 54.5963C106.549 54.4634 106.736 54.336 106.912 54.1962C108.088 53.2656 109.263 52.3336 110.438 51.4001C110.741 51.1539 111.066 50.9346 111.407 50.7445C111.535 50.6802 111.667 50.6224 111.801 50.5714C111.939 50.5133 112.084 50.5232 112.226 50.5431C112.37 50.5639 112.502 50.6308 112.605 50.7337C112.707 50.8367 112.772 50.97 112.792 51.1137C112.828 51.3595 112.795 51.6106 112.696 51.8384C112.575 52.1215 112.446 52.4016 112.306 52.6755C112.063 53.1521 111.752 53.5867 111.454 54.0294C111.34 54.1991 111.239 54.378 111.136 54.5544C111.128 54.5673 111.141 54.5938 111.147 54.613C111.159 54.6492 111.2 54.665 111.24 54.6321C111.4 54.505 111.559 54.376 111.713 54.2402C112.449 53.5852 113.17 52.9108 113.923 52.2745C116.388 50.188 119.076 48.3788 121.937 46.8794C122.355 46.6602 122.784 46.4606 123.213 46.263C123.494 46.1356 123.798 46.0653 124.107 46.0565C124.487 46.042 124.979 46.3293 125.063 46.8543C125.089 47.0164 125.09 47.1817 125.066 47.344C125.015 47.6694 124.913 47.9847 124.764 48.2783C124.484 48.8273 124.15 49.3468 123.766 49.8291C123.293 50.4238 122.794 50.9969 122.271 51.5483C120.861 53.0417 119.449 54.5314 118.05 56.0342C116.777 57.4018 115.558 58.8165 114.449 60.3225C113.974 60.9685 113.516 61.6245 113.181 62.3571C113.036 62.6741 112.906 62.9987 112.776 63.3221C112.69 63.5358 112.685 63.7632 112.684 63.9904C112.683 64.2925 112.867 64.4895 113.151 64.5607C113.431 64.6327 113.726 64.6251 114.002 64.5387C114.454 64.3976 114.895 64.229 115.3 63.9755C116.154 63.4422 117.005 62.9034 117.809 62.2968C119.302 61.1693 120.788 60.0352 122.28 58.9076C124.067 57.5568 125.857 56.2093 127.649 54.8652C128.026 54.582 128.362 54.2473 128.647 53.8708C129.842 52.3041 131.048 50.7463 132.251 49.1853C132.35 49.0552 132.45 48.924 132.558 48.7998C132.625 48.7219 132.703 48.6541 132.789 48.5984C133.284 48.292 133.771 48.6811 133.823 49.078C133.848 49.2834 133.817 49.4918 133.732 49.6806C133.651 49.8694 133.559 50.053 133.456 50.2305C133.168 50.7281 132.848 51.2068 132.499 51.6634C131.398 53.0954 130.297 54.5268 129.196 55.9577C128.77 56.5119 128.346 57.066 127.923 57.6197C127.873 57.6843 127.834 57.756 127.789 57.8246C127.752 57.89 127.718 57.9576 127.688 58.0269C127.668 58.0833 127.735 58.1279 127.802 58.1008C127.835 58.0819 127.865 58.0584 127.892 58.0309C128.094 57.9648 128.237 57.8105 128.399 57.6871C129.788 56.6279 131.127 55.5058 132.444 54.3603C133.343 53.5787 134.224 52.7758 135.113 51.9831C135.772 51.3952 136.429 50.805 137.093 50.2222C137.28 50.0623 137.476 49.9124 137.679 49.7731C137.765 49.7168 137.859 49.6742 137.958 49.647C138.148 49.5882 138.322 49.6153 138.464 49.7714C138.6 49.9205 138.647 50.0937 138.591 50.2837C138.562 50.3816 138.514 50.4733 138.452 50.5541C138.212 50.8619 137.972 51.1686 137.719 51.4662C136.937 52.3901 136.152 53.3114 135.363 54.2301C134.333 55.43 133.382 56.6912 132.457 57.9737C131.989 58.6244 131.6 59.3282 131.296 60.0703C131.12 60.5104 131.033 60.9815 131.041 61.4557C131.043 61.7469 131.128 62.023 131.333 62.2469C131.469 62.3941 131.629 62.4607 131.83 62.4218C132.132 62.3603 132.424 62.259 132.7 62.1203C133.332 61.8117 133.901 61.4096 134.427 60.9432C135.642 59.8678 136.797 58.7274 137.889 57.527C139.281 55.9888 140.591 54.383 141.881 52.7614C142.188 52.3757 142.49 51.9886 142.796 51.6028C143.08 51.2445 143.294 50.8515 143.401 50.4029C143.582 49.6456 143.976 49.0009 144.474 48.4159C144.597 48.2784 144.734 48.1549 144.885 48.0479C145.083 47.8997 145.308 47.9072 145.516 48.0436C145.697 48.1629 145.778 48.4003 145.703 48.6467C145.614 48.9418 145.513 49.2339 145.345 49.4962C145.158 49.7901 144.976 50.089 144.769 50.3694C144.413 50.8555 144.352 51.3816 144.506 51.948C144.599 52.2892 144.818 52.5213 145.138 52.6557C145.594 52.8491 146.085 52.9439 146.579 52.934C147.094 52.9238 147.6 52.8427 148.108 52.7759C148.293 52.7502 148.465 52.6696 148.603 52.5445C148.742 52.4233 148.872 52.2911 149.005 52.1625C149.49 51.6899 149.971 51.2125 150.464 50.7474C150.974 50.2659 151.553 49.8739 152.151 49.51C152.485 49.3063 152.855 49.1678 153.241 49.1016C153.56 49.046 153.877 49.2688 153.964 49.5474C154.044 49.805 153.975 50.0332 153.82 50.24C153.755 50.3196 153.682 50.3923 153.602 50.4568C153.493 50.5506 153.381 50.6409 153.266 50.7265C151.525 52.0182 149.984 53.5203 148.576 55.163C148.229 55.5682 147.9 55.9886 147.564 56.404C147.216 56.8377 146.937 57.3157 146.675 57.8055C146.524 58.0887 146.48 58.3855 146.499 58.6995C146.507 58.7713 146.542 58.8374 146.597 58.8843C146.652 58.9312 146.723 58.9554 146.795 58.9519C146.876 58.9446 146.957 58.93 147.035 58.9084C147.331 58.8213 147.615 58.698 147.881 58.5412C148.289 58.3014 148.669 58.0183 149.016 57.6968C149.777 57.0073 150.511 56.2897 151.218 55.544C152.519 54.174 153.771 52.7594 154.99 51.3165C155.096 51.1914 155.192 51.0571 155.301 50.9344C155.444 50.7722 155.45 50.608 155.346 50.4259C155.298 50.335 155.255 50.2412 155.219 50.1451C154.993 49.6118 154.913 49.0277 154.989 48.4534C155.111 47.5023 155.424 46.6173 156.014 45.845C156.238 45.5505 156.502 45.2887 156.799 45.0672C157.062 44.8663 157.378 44.7477 157.709 44.7263C158.119 44.7003 158.425 44.8764 158.622 45.232C158.766 45.4916 158.798 45.7762 158.768 46.069C158.717 46.5663 158.551 47.0286 158.339 47.4769C157.958 48.2741 157.498 49.0309 156.965 49.7356C156.793 49.965 156.629 50.2013 156.464 50.4363C156.409 50.5157 156.446 50.6534 156.528 50.7028C156.579 50.7387 156.634 50.7683 156.692 50.7909C157.145 50.9274 157.6 51.0319 158.082 51.0324C158.825 51.0338 159.553 50.9315 160.279 50.7908C160.623 50.7232 160.942 50.5635 161.203 50.3286C161.605 49.978 162.012 49.632 162.423 49.2903C162.756 49.0132 163.126 48.7909 163.508 48.5887C163.69 48.492 163.888 48.4287 164.092 48.4017C164.193 48.3883 164.295 48.3865 164.397 48.3963C164.82 48.4383 165.029 48.9268 164.805 49.2877C164.761 49.3565 164.707 49.4192 164.647 49.4743C164.453 49.6569 164.259 49.8392 164.058 50.0167C162.208 51.6483 160.47 53.3927 158.889 55.2892C158.402 55.8729 157.936 56.4711 157.539 57.122C157.308 57.5102 157.105 57.9143 156.932 58.3312C156.863 58.5028 156.816 58.6819 156.79 58.8648C156.775 58.9603 156.805 59.0674 156.827 59.1663C156.846 59.256 156.966 59.349 157.05 59.3539C157.276 59.3696 157.502 59.3356 157.714 59.2544C157.905 59.1801 158.093 59.0961 158.276 59.0029C158.896 58.6801 159.476 58.2836 160.001 57.8218C162.042 56.0309 163.964 54.124 165.683 52.0184C165.828 51.844 165.959 51.6608 166.103 51.4868C166.198 51.3733 166.182 51.2626 166.118 51.1468C166.049 51.0207 165.976 50.8968 165.908 50.7701C165.625 50.2398 165.546 49.6803 165.7 49.0993C165.764 48.8398 165.855 48.588 165.973 48.3482C166.292 47.7251 166.734 47.1728 167.271 46.7243C167.491 46.5383 167.743 46.3935 168.015 46.2969C168.429 46.1507 168.968 46.2964 169.194 46.8078C169.319 47.0923 169.35 47.4094 169.282 47.7126C169.168 48.2607 168.98 48.7793 168.673 49.251C168.36 49.7344 168.045 50.2132 167.731 50.6943C167.676 50.7797 167.621 50.8651 167.565 50.9533C167.547 50.9894 167.541 51.0304 167.548 51.0703C167.554 51.1102 167.574 51.147 167.602 51.1753C167.662 51.2302 167.726 51.2799 167.794 51.3238C168.236 51.5847 168.725 51.6364 169.222 51.6258C169.467 51.622 169.713 51.5825 169.955 51.5445C170.484 51.4615 170.995 51.3133 171.505 51.1531C171.742 51.0804 171.957 50.9521 172.134 50.7791C172.208 50.7074 172.28 50.6343 172.352 50.5617C173.298 49.6157 174.317 48.753 175.379 47.9423C175.77 47.6445 176.187 47.3756 176.598 47.1055C176.982 46.8544 177.41 46.711 177.863 46.6462C178.372 46.5736 178.844 46.6478 179.247 46.9985C179.292 47.0399 179.344 47.0738 179.401 47.0989C179.419 47.1047 179.438 47.1063 179.457 47.1037C179.476 47.1011 179.494 47.0943 179.51 47.0838C179.608 47.0112 179.7 46.9296 179.783 46.84C181.941 44.3285 184.298 42.0126 186.723 39.7631C188.154 38.4363 189.587 37.1116 191.074 35.8468C192.154 34.9276 193.258 34.0379 194.438 33.2478C195.512 32.5225 196.651 31.8991 197.841 31.3857C198.465 31.1189 199.105 30.8963 199.784 30.8147C200.048 30.7829 200.315 30.7753 200.58 30.7534C200.768 30.738 200.949 30.7704 201.129 30.8128C201.691 30.9456 202.01 31.309 202.121 31.8644C202.205 32.2699 202.169 32.6909 202.02 33.0769C201.902 33.383 201.762 33.681 201.617 33.9751C201.352 34.5123 201.001 34.9937 200.631 35.4606C200.093 36.1367 199.501 36.7632 198.88 37.3623C197.742 38.4636 196.537 39.4871 195.298 40.4711C192.609 42.6063 189.849 44.6437 187.017 46.5834C185.59 47.5575 184.077 48.3997 182.498 49.0998C182.367 49.1584 182.234 49.2133 182.101 49.2681C181.3 49.5983 180.48 49.8535 179.609 49.9125C179.324 49.9321 179.101 50.0494 178.932 50.282C178.523 50.8463 178.097 51.4003 177.695 51.9705C176.678 53.4141 175.728 54.9009 174.893 56.4593C174.248 57.6514 173.682 58.8848 173.199 60.1514C172.719 61.4214 172.359 62.7335 172.123 64.0706C171.828 65.7328 171.813 67.4325 172.079 69.0995C172.174 69.6878 172.33 70.2647 172.543 70.821C173.047 72.1436 173.869 73.2221 175.011 74.0567C175.725 74.5817 176.495 75.0115 177.294 75.3862C178.803 76.0939 180.388 76.6245 182.018 76.9674C182.802 77.1322 183.591 77.2713 184.385 77.3845C185.097 77.4855 185.809 77.5747 186.524 77.6481C187.709 77.7692 188.897 77.8328 190.089 77.839C193.4 77.8536 196.682 77.5206 199.94 76.9453C204.878 76.0731 209.63 74.6002 214.198 72.5267C215.982 71.7231 217.682 70.7658 219.324 69.7032C219.962 69.2898 220.579 68.8442 221.173 68.3682C223.243 66.7067 225.188 64.9126 226.931 62.906C227.684 62.0375 228.406 61.1436 229.028 60.1733C229.342 59.6914 229.61 59.181 229.828 58.6488C229.956 58.3236 230.055 57.9877 230.124 57.6451C230.239 57.0969 230.062 56.6312 229.643 56.2621C229.521 56.1538 229.378 56.0682 229.256 55.9614C229.217 55.9275 229.202 55.8589 229.189 55.8034C229.174 55.7332 229.268 55.7151 229.386 55.7575C229.405 55.7644 229.426 55.7677 229.445 55.7759C229.465 55.7816 229.484 55.7888 229.503 55.7976C229.722 55.9087 229.927 56.047 230.113 56.2092C230.414 56.4828 230.593 56.8227 230.627 57.2298C230.668 57.6815 230.61 58.1367 230.459 58.5643C230.243 59.1635 229.968 59.7397 229.638 60.2842C229.024 61.309 228.307 62.2578 227.536 63.1659C225.615 65.4264 223.478 67.4657 221.156 69.3101C219.93 70.2838 218.615 71.126 217.248 71.8869C215.054 73.1088 212.77 74.1383 210.418 75.0166C205.372 76.8971 200.179 78.1341 194.82 78.6756C192.963 78.8668 191.096 78.9483 189.23 78.92C188.245 78.9037 187.261 78.8523 186.281 78.7392C185.506 78.6495 184.729 78.5785 183.956 78.4719C182.306 78.2491 180.678 77.8796 179.093 77.3677C177.607 76.8838 176.179 76.2571 174.852 75.4198C173.019 74.2644 171.797 72.6482 171.184 70.5713C170.851 69.44 170.715 68.28 170.704 67.1061C170.69 65.4777 170.857 63.8665 171.257 62.2824C171.573 61.0265 171.97 59.7926 172.446 58.5884C173.252 56.5581 174.264 54.6363 175.405 52.7782C175.512 52.6043 175.611 52.4261 175.71 52.2476C175.75 52.1762 175.713 52.269 175.681 52.1938C175.671 52.1707 175.603 52.145 175.587 52.1562C175.487 52.2229 175.393 52.2988 175.307 52.3829C174.797 52.9174 174.293 53.4582 173.782 53.9926C173.03 54.779 172.276 55.5631 171.519 56.3449C171.031 56.8474 170.483 57.2819 169.927 57.7049C169.733 57.8578 169.515 57.9776 169.282 58.0597C169.165 58.0968 169.045 58.1241 168.924 58.1411C168.576 58.1946 168.332 58.0263 168.145 57.7548C168.039 57.5992 167.995 57.4199 167.983 57.2315C167.952 56.726 168.089 56.2539 168.293 55.8002C168.59 55.1421 168.976 54.5365 169.411 53.9623C169.77 53.4875 170.144 53.0246 170.509 52.5551C170.572 52.4749 170.627 52.3881 170.683 52.3034C170.713 52.258 170.661 52.1735 170.604 52.1721C170.544 52.1658 170.483 52.1656 170.423 52.1714C170.14 52.2242 169.86 52.2853 169.578 52.3391C169.255 52.4032 168.926 52.4275 168.598 52.4112C168.165 52.386 167.741 52.3156 167.347 52.117C167.22 52.0505 167.085 51.9987 166.946 51.9626C166.907 51.9543 166.866 51.954 166.826 51.9618C166.787 51.9696 166.749 51.9852 166.716 52.0078C166.591 52.1143 166.476 52.2314 166.371 52.3578C165.135 53.7883 163.82 55.1434 162.469 56.4655C161.631 57.284 160.777 58.0845 159.862 58.8158C159.364 59.2136 158.829 59.5628 158.264 59.8584C157.9 60.0508 157.503 60.171 157.093 60.2123C156.519 60.2712 155.869 59.9456 155.72 59.1614C155.677 58.9393 155.67 58.7117 155.699 58.4872C155.767 57.9515 155.928 57.4414 156.138 56.9497C156.576 55.9262 157.124 54.9648 157.818 54.0912C158.29 53.4964 158.767 52.906 159.243 52.3144C159.398 52.1218 159.556 51.9339 159.711 51.742C159.777 51.6595 159.786 51.5545 159.754 51.5145C159.706 51.4545 159.646 51.4717 159.591 51.4759C159.244 51.5024 158.896 51.5345 158.549 51.5613C158.304 51.5801 158.058 51.5972 157.812 51.6088C157.231 51.6363 156.662 51.5906 156.143 51.2882C156.106 51.2691 156.068 51.2539 156.028 51.243C155.926 51.2096 155.83 51.2034 155.748 51.294C155.638 51.4161 155.525 51.5352 155.414 51.6561C154.116 53.0836 152.817 54.5109 151.518 55.9379C151.173 56.3172 150.827 56.696 150.474 57.0691C149.654 57.9397 148.759 58.7191 147.738 59.3531C147.461 59.5317 147.154 59.6594 146.832 59.7301C146.322 59.8357 145.801 59.6146 145.572 59.0842C145.395 58.6741 145.376 58.2489 145.454 57.8151C145.561 57.2277 145.763 56.6616 146.052 56.1387C146.318 55.6525 146.611 55.1817 146.93 54.7284C147.047 54.5595 147.156 54.3883 147.261 54.2117C147.274 54.19 147.281 54.1653 147.281 54.1401C147.281 54.1148 147.275 54.0899 147.262 54.0681C147.25 54.0462 147.231 54.028 147.209 54.0156C147.188 54.0031 147.163 53.9967 147.137 53.997C146.973 54.0014 146.81 54.0126 146.645 54.0176C145.946 54.0384 145.25 53.9258 144.593 53.6857C144.188 53.5378 143.884 53.2829 143.652 52.9304C143.55 52.7771 143.46 52.6161 143.362 52.461C143.357 52.4515 143.351 52.4433 143.342 52.4369C143.334 52.4305 143.324 52.4262 143.314 52.4241C143.303 52.4221 143.293 52.4225 143.282 52.4253C143.272 52.4281 143.263 52.4331 143.255 52.4401C143.173 52.5001 143.08 52.5516 143.013 52.626C142.862 52.7936 142.723 52.9718 142.581 53.1475C141.485 54.505 140.387 55.8603 139.254 57.1871C137.919 58.7479 136.483 60.219 134.955 61.591C134.324 62.1589 133.64 62.6431 132.87 63.0021C132.608 63.1238 132.34 63.2313 132.058 63.2856C131.877 63.3258 131.69 63.3334 131.507 63.3078C131.029 63.2313 130.673 62.9805 130.422 62.5741C130.142 62.1215 130.053 61.6249 130.082 61.0983C130.133 60.1283 130.474 59.2547 130.963 58.4324C131.579 57.3895 132.266 56.3897 133.017 55.4397C133.208 55.2 133.427 54.9786 133.56 54.6959C133.652 54.5939 133.75 54.4952 133.837 54.3889C133.874 54.3449 133.9 54.2859 133.868 54.2239C133.845 54.1823 133.723 54.2014 133.659 54.2626C133.602 54.3175 133.554 54.3809 133.502 54.4406C133.326 54.5819 133.147 54.7195 132.975 54.8655C131.266 56.3154 129.559 57.7653 127.851 59.2153C127.617 59.4142 127.37 59.6011 127.118 59.7765C126.967 59.8806 126.795 59.9531 126.631 60.0372C126.516 60.0954 126.393 60.0964 126.269 60.0918C126.124 60.0874 125.985 60.0365 125.872 59.9465C125.759 59.8566 125.677 59.7325 125.64 59.5927C125.602 59.4536 125.595 59.3076 125.621 59.1655C125.685 58.8007 125.793 58.445 125.943 58.1063C126.166 57.6207 126.432 57.1579 126.697 56.6941C126.73 56.6429 126.755 56.5866 126.77 56.5275C126.77 56.5073 126.766 56.4874 126.757 56.469C126.749 56.4507 126.737 56.4344 126.721 56.4212C126.694 56.3974 126.636 56.3757 126.611 56.3893C126.523 56.4413 126.439 56.4999 126.36 56.5647C124.667 57.9017 122.98 59.2477 121.28 60.5748C120.065 61.5238 118.831 62.4461 117.606 63.3814C116.886 63.9313 116.122 64.4152 115.351 64.8871C115.052 65.0699 114.732 65.2092 114.406 65.3382C113.926 65.5288 113.402 65.5812 112.893 65.4893C112.173 65.3647 111.69 64.8959 111.61 64.1875C111.55 63.669 111.636 63.1643 111.803 62.6715C112.174 61.5728 112.716 60.5636 113.363 59.6068C114.676 57.6655 116.133 55.8367 117.682 54.0803C118.823 52.7857 120.025 51.55 121.231 50.316C121.949 49.5811 122.635 48.8185 123.202 47.9568C123.268 47.8555 123.313 47.7398 123.364 47.6291C123.387 47.5802 123.322 47.5032 123.269 47.5125C123.189 47.5252 123.105 47.5292 123.029 47.5552C122.913 47.5951 122.802 47.6514 122.689 47.7003C121.384 48.2646 120.144 48.9499 118.936 49.6951C117.045 50.8588 115.268 52.1986 113.629 53.6968C111.401 55.7338 109.212 57.8125 107.109 59.9804C106.894 60.2014 106.677 60.42 106.452 60.6299C106.331 60.7412 106.201 60.841 106.062 60.928C105.845 61.0647 105.54 61.0534 105.368 60.9022C105.171 60.7298 105.062 60.5109 105.121 60.2422C105.147 60.122 105.194 60.0075 105.26 59.9041C105.453 59.6135 105.649 59.3246 105.863 59.0493C106.793 57.8494 107.735 56.6569 108.665 55.4558C109.257 54.6943 109.838 53.9248 110.422 53.1571C110.508 53.0436 110.582 52.9198 110.66 52.8002C110.711 52.7178 110.768 52.6381 110.811 52.5518C110.836 52.5032 110.77 52.4436 110.703 52.4577C110.667 52.471 110.633 52.4893 110.602 52.5122C110.456 52.5464 110.351 52.6496 110.236 52.7339C108.712 53.8566 107.263 55.0698 105.851 56.3265C104.392 57.6239 103.001 58.9886 101.657 60.4058C101.191 60.8972 100.711 61.3751 100.236 61.8588C100.051 62.0514 99.8419 62.22 99.6146 62.3608C99.3399 62.5276 99.0679 62.5177 98.811 62.3262C98.6325 62.1933 98.5445 62.014 98.5799 61.7902C98.6198 61.5044 98.7214 61.2307 98.8777 60.9881C99.1695 60.5412 99.49 60.1137 99.8371 59.7083C100.982 58.3917 102.126 57.0736 103.268 55.7541C104.265 54.6074 105.224 53.4315 106.08 52.1741C106.35 51.7863 106.581 51.3728 106.769 50.9395C106.785 50.9015 106.802 50.864 106.816 50.8255C106.874 50.6655 106.789 50.4713 106.633 50.4229C106.301 50.3144 105.955 50.2537 105.606 50.2425C105.114 50.2371 104.622 50.2855 104.14 50.3869C103.395 50.5326 102.662 50.7388 101.95 51.0035C101.278 51.2561 100.612 51.5266 99.9455 51.7961C99.5268 51.9658 99.1146 52.1517 98.6967 52.3236C98.4309 52.4333 98.1634 52.5396 97.8917 52.6322C97.385 52.8052 96.8679 52.9385 96.327 52.928C96.0143 52.9219 95.7721 53.0403 95.584 53.2859C95.5093 53.3835 95.4259 53.4749 95.3438 53.5663C93.3426 55.7966 91.3409 58.0265 89.3386 60.256C88.6532 61.0209 87.9308 61.7502 87.2003 62.4711C86.7896 62.8766 86.3426 63.2384 85.8393 63.525C85.6442 63.6388 85.4426 63.7412 85.2357 63.8318C85.0674 63.9086 84.8899 63.9635 84.7076 63.995C84.1441 64.0743 83.6138 63.8304 83.4906 63.1463C83.416 62.7343 83.4649 62.3233 83.6027 61.9312C83.8759 61.1334 84.2407 60.37 84.6896 59.6562C85.5808 58.2465 86.6104 56.944 87.7432 55.7222C88.5672 54.8342 89.4026 53.9585 90.2226 53.0665C90.528 52.7348 90.8095 52.3811 91.0897 52.0284C91.19 51.9022 91.2582 51.7495 91.3339 51.6051C91.3727 51.5315 91.2804 51.3752 91.1948 51.3639C91.1143 51.3526 91.0331 51.3474 90.9519 51.3482C90.275 51.3627 89.6009 51.4412 88.9388 51.5826C88.055 51.7716 87.1858 52.0232 86.3377 52.3357C85.7204 52.5603 85.1046 52.7903 84.4861 53.0113C83.8677 53.2324 83.2367 53.418 82.5872 53.5247C81.7118 53.6683 80.8327 53.7251 79.9555 53.5497C79.6965 53.498 79.5225 53.5758 79.376 53.7827C79.2712 53.9332 79.1455 54.0708 79.0261 54.2121C78.417 54.9329 77.8164 55.6615 77.1945 56.3714C76.4353 57.2359 75.6307 58.0593 74.784 58.8382C73.9399 59.6207 73.0384 60.3389 72.087 60.9866C71.832 61.1591 71.5681 61.32 71.2984 61.4685C70.9904 61.6344 70.6552 61.7438 70.3087 61.7914C70.1257 61.8177 69.9393 61.8096 69.7593 61.7675C69.3198 61.6716 69.0351 61.3991 68.8755 60.9892C68.7509 60.6613 68.7109 60.3072 68.7592 59.9597C68.8368 59.3673 69.0079 58.7911 69.2662 58.2524C69.9968 56.6929 70.9944 55.3212 72.2256 54.1203C72.5927 53.7623 72.9771 53.4197 73.3736 53.0944C73.8349 52.7171 74.3164 52.3655 74.7905 52.005C74.9853 51.8533 75.2005 51.7298 75.4297 51.6381C75.6417 51.552 75.8791 51.5532 76.0902 51.6414C76.2747 51.7168 76.4122 51.9374 76.3892 52.1334C76.3725 52.3188 76.305 52.496 76.1941 52.6455C76.0944 52.776 75.9865 52.9002 75.8713 53.0172C75.4074 53.4837 74.9476 53.9516 74.4703 54.4044C73.3333 55.4795 72.292 56.6362 71.3984 57.9231C71.0583 58.4127 70.7592 58.927 70.4633 59.4432C70.3095 59.7112 70.2019 59.9983 70.1852 60.3161C70.171 60.584 70.2816 60.6723 70.5588 60.5891C70.9324 60.4747 71.2911 60.3163 71.6273 60.1172C72.5133 59.5957 73.3495 58.9939 74.1255 58.3195C74.67 57.85 75.1901 57.3541 75.6967 56.8432C76.8399 55.6887 77.8641 54.4329 78.8692 53.1599C78.8962 53.129 78.9126 53.0904 78.9162 53.0495C78.9197 53.0087 78.9101 52.9678 78.8889 52.9328C78.8094 52.7887 78.7252 52.6475 78.6475 52.5029C78.343 51.9365 78.2754 51.337 78.3994 50.7101C78.4879 50.2606 78.6692 49.8478 78.8999 49.4568C79.4345 48.5502 80.1813 47.7871 81.0761 47.2332C81.3195 47.0795 81.584 46.9622 81.8613 46.8851C82.0405 46.8366 82.2283 46.8287 82.4109 46.8619C82.8495 46.9367 83.1687 47.2217 83.2252 47.7365C83.2592 48.048 83.1957 48.3494 83.0731 48.639C82.8776 49.1142 82.6257 49.5642 82.3227 49.9792C81.9553 50.4731 81.5829 50.963 81.2104 51.4519C80.9742 51.7622 80.7325 52.0681 80.4955 52.3774C80.433 52.4586 80.3752 52.5433 80.3202 52.631C80.2452 52.7504 80.2988 52.8663 80.4471 52.9009C80.5661 52.932 80.6872 52.9548 80.8095 52.9691C81.6329 53.043 82.4508 53.001 83.254 52.8014C83.6717 52.6977 84.0851 52.5721 84.492 52.4315C85.0936 52.2234 85.6874 51.9938 86.2849 51.773C87.0539 51.4881 87.8301 51.2192 88.6233 51.0018C89.4166 50.7844 90.2261 50.6534 91.0398 50.5477C91.3249 50.5054 91.6155 50.5179 91.8959 50.5844C92.3367 50.6973 92.5846 51.0834 92.5676 51.5021C92.5532 51.9361 92.424 52.3586 92.1932 52.7264C91.8975 53.1952 91.5856 53.6508 91.2214 54.0702C90.5628 54.8301 89.9042 55.59 89.2392 56.3449C88.1935 57.5309 87.1831 58.7456 86.2554 60.0271C85.7866 60.6761 85.3619 61.3558 84.9841 62.0616C84.8854 62.2453 84.8133 62.4334 84.8065 62.6439C84.8042 62.7179 84.8979 62.8049 84.9664 62.7807C85.1031 62.737 85.2371 62.6851 85.3675 62.6254C85.7895 62.4112 86.1825 62.144 86.537 61.8304C87.1089 61.3302 87.6747 60.8228 88.1999 60.2732C90.3277 58.0471 92.4185 55.7883 94.419 53.447C94.5657 53.2753 94.7069 53.0992 94.8493 52.9238C94.8984 52.8614 94.8832 52.7667 94.8087 52.7108C94.6611 52.601 94.5076 52.4988 94.3608 52.3882C93.9265 52.0622 93.6806 51.6295 93.6334 51.0862C93.6112 50.8362 93.6564 50.5947 93.725 50.3566C93.8451 49.9394 94.0202 49.5452 94.2804 49.1956C94.5007 48.8995 94.7204 48.601 94.9646 48.3253C95.6639 47.536 96.4737 46.8745 97.3547 46.2986C97.7225 46.0582 98.1169 45.8968 98.5635 45.8911C98.625 45.8903 98.6871 45.8863 98.748 45.8916C99.2155 45.9313 99.5537 46.2407 99.619 46.7041C99.6524 46.9487 99.6436 47.1972 99.593 47.4389C99.4963 47.9075 99.2992 48.3356 99.0757 48.7529C98.7261 49.4062 98.3027 50.0114 97.8492 50.5943C97.5972 50.9181 97.3365 51.235 97.081 51.5582C97.0041 51.653 96.9321 51.7516 96.8654 51.8539C96.8504 51.8775 96.8635 51.934 96.8831 51.9612C96.9074 51.9928 96.943 52.0138 96.9824 52.0198C97.0428 52.0232 97.1034 52.017 97.1618 52.0014C97.899 51.8176 98.6235 51.5863 99.3307 51.3088C99.9413 51.0652 100.553 50.8237 101.165 50.5845C102.103 50.2199 103.055 49.8948 104.042 49.6855C104.664 49.5538 105.292 49.4634 105.931 49.4496C106.222 49.4434 106.505 49.4801 106.789 49.5158C107.037 49.5461 107.266 49.6493 107.48 49.7699C107.606 49.8402 107.716 49.9368 107.802 50.0532C107.888 50.1696 107.947 50.303 107.977 50.4445C108.064 50.8162 108.013 51.1806 107.896 51.537C107.766 51.927 107.589 52.3 107.37 52.6481C107.11 53.0662 106.835 53.4751 106.567 53.8884C106.468 54.0426 106.371 54.1989 106.273 54.3542C106.227 54.4182 106.177 54.4804 106.134 54.5475C106.099 54.6047 106.119 54.6716 106.179 54.6893C106.215 54.6982 106.252 54.6942 106.285 54.6782C106.316 54.6551 106.344 54.6275 106.368 54.5963ZM201.101 32.7788C201.132 32.6593 201.174 32.5414 201.189 32.4199C201.202 32.3207 201.185 32.2172 201.176 32.1158C201.163 31.9652 200.963 31.8146 200.833 31.8057C200.771 31.8013 200.71 31.8004 200.648 31.8014C200.085 31.8111 199.551 31.9516 199.041 32.1787C197.649 32.8014 196.311 33.5186 195.073 34.4126C194.322 34.955 193.6 35.531 192.895 36.1307C189.608 38.9295 186.48 41.8976 183.476 44.997C182.375 46.1327 181.334 47.323 180.317 48.5322C180.238 48.6271 180.166 48.7265 180.099 48.8298C180.08 48.8581 180.086 48.9051 180.085 48.9433C180.084 48.9816 180.176 49.0329 180.235 49.0245C180.296 49.0215 180.357 49.0135 180.417 49.0008C180.99 48.8338 181.559 48.6632 182.108 48.4283C183.565 47.8083 184.961 47.0524 186.276 46.1707C189.16 44.2296 191.955 42.1694 194.662 39.9903C195.816 39.0645 196.942 38.1055 198.005 37.0753C198.643 36.4642 199.242 35.8133 199.797 35.1265C200.109 34.745 200.389 34.3383 200.634 33.9106C200.834 33.554 201.021 33.1876 201.101 32.7788ZM169.131 56.7616C169.124 56.8233 169.122 56.864 169.116 56.9043C169.11 56.9445 169.187 57.0138 169.237 57.0108C169.412 57.0004 169.539 56.896 169.669 56.7963C170.516 56.1459 171.314 55.435 172.058 54.669C173.578 53.1137 175.112 51.5713 176.641 50.025C177.017 49.6442 177.407 49.2885 177.91 49.0676C178.189 48.9447 178.319 48.6751 178.39 48.387C178.398 48.3263 178.394 48.2644 178.377 48.2054C178.352 48.082 178.218 47.9877 178.106 48.0071C177.882 48.0399 177.666 48.1177 177.473 48.236C177.127 48.4569 176.774 48.6688 176.446 48.914C174.814 50.1274 173.299 51.4897 171.92 52.9834C171.151 53.8097 170.434 54.6822 169.772 55.596C169.507 55.9655 169.31 56.369 169.131 56.7616ZM98.3751 47.6723C98.3821 47.632 98.4017 47.5889 98.394 47.5518C98.3837 47.4945 98.36 47.4404 98.325 47.3938C98.3071 47.372 98.2431 47.3669 98.212 47.3808C98.0985 47.426 97.99 47.4828 97.8882 47.5503C97.087 48.1291 96.3425 48.7738 95.6858 49.5136C95.4825 49.7431 95.3072 49.998 95.1287 50.2484C94.9461 50.5047 94.8593 50.7995 94.8192 51.1092C94.8107 51.1808 94.8166 51.2534 94.8366 51.3226C94.8567 51.3919 94.8904 51.4564 94.9357 51.5124C95.0589 51.678 95.2276 51.8042 95.4213 51.8755C95.5479 51.9221 95.6636 51.8934 95.7661 51.8102C95.7966 51.7831 95.8245 51.7531 95.8494 51.7208C96.4541 50.9952 97.0288 50.247 97.5349 49.4484C97.8836 48.8913 98.1656 48.2952 98.3751 47.6723ZM157.873 46.6275C157.916 46.4064 157.969 46.1879 157.999 45.9635C158.03 45.726 157.76 45.5355 157.547 45.6338C157.49 45.6573 157.436 45.6866 157.386 45.7213C157.154 45.8901 156.946 46.0887 156.766 46.312C156.338 46.863 156.026 47.4952 155.849 48.1703C155.775 48.4445 155.746 48.7347 155.731 49.0195C155.712 49.2866 155.763 49.554 155.88 49.795C155.906 49.8479 155.947 49.8926 155.997 49.9244C156.069 49.9678 156.104 49.8951 156.137 49.8506C156.604 49.2546 157.01 48.6133 157.349 47.9362C157.563 47.5182 157.771 47.094 157.873 46.6275ZM82.1497 48.4782C82.1649 48.3694 82.1833 48.3081 82.1787 48.2482C82.175 48.1888 82.1565 48.1313 82.1247 48.0809C82.0852 48.023 82.0144 48.0407 81.9611 48.0649C81.8675 48.1054 81.7775 48.1538 81.692 48.2095C80.9042 48.7427 80.2428 49.4034 79.7347 50.2087C79.596 50.4349 79.481 50.6746 79.3914 50.9243C79.2686 51.253 79.2588 51.6132 79.3634 51.948C79.3858 52.004 79.4133 52.0578 79.4456 52.1087C79.4647 52.1467 79.5814 52.1736 79.6115 52.1468C79.6864 52.0795 79.7715 52.019 79.8308 51.9377C80.3083 51.3012 80.78 50.66 81.2557 50.0217C81.5329 49.6426 81.7783 49.2411 81.9895 48.8215C82.0549 48.698 82.1093 48.5674 82.1497 48.4782ZM168.285 47.9008C168.285 47.8362 168.287 47.7355 168.287 47.6341C168.287 47.6196 168.282 47.6057 168.274 47.5935C168.267 47.5813 168.256 47.5714 168.243 47.5648C168.23 47.5581 168.216 47.555 168.202 47.5557C168.187 47.5563 168.173 47.5608 168.161 47.5686C168.089 47.6054 168.02 47.6473 167.954 47.6942C167.504 48.055 167.133 48.4791 166.863 48.9943C166.692 49.3181 166.655 49.6508 166.722 49.9998C166.736 50.0747 166.789 50.1452 166.837 50.209C166.854 50.2315 166.919 50.2474 166.938 50.2349C167.021 50.1772 167.096 50.1096 167.162 50.0334C167.67 49.4075 168.009 48.693 168.285 47.9017L168.285 47.9008Z" fill="#8A817C"/>
<path d="M54.5874 47.1727C54.3309 48.0687 54.0396 48.9889 53.6927 49.8909C53.2009 51.1761 52.6235 52.4269 51.9643 53.6348C51.8764 53.7957 51.8167 53.9721 51.7493 54.1435C51.7213 54.2139 51.7931 54.3231 51.8644 54.3281C51.9453 54.3364 52.0267 54.3395 52.108 54.3374C53.7266 54.2444 55.3402 54.1037 56.9325 53.7818C57.3556 53.6958 57.7682 53.5756 58.1833 53.46C58.5446 53.3674 58.8557 53.1378 59.0509 52.82C59.3798 52.2993 59.718 51.7847 60.0508 51.2667C63.9568 45.1815 68.1745 39.3207 72.7039 33.6842C74.2957 31.695 75.9951 29.8012 77.8423 28.0431C78.9155 27.0219 80.0402 26.061 81.2511 25.2081C81.6206 24.9482 82.0026 24.7041 82.3926 24.477C82.9455 24.1543 83.5406 23.9303 84.1631 23.7763C84.4221 23.7118 84.6881 23.6796 84.955 23.6805C85.485 23.6819 85.9927 24.0811 85.9266 24.7771C85.8871 25.1905 85.7523 25.5811 85.5787 25.9551C85.1449 26.8847 84.6514 27.7853 84.1013 28.6511C83.3106 29.9047 82.4108 31.0761 81.4406 32.1935C80.1748 33.6514 78.8289 35.0376 77.4089 36.3456C75.7468 37.8764 74.0767 39.398 72.3985 40.9104C70.3487 42.7476 68.359 44.6477 66.3782 46.5583C65.9939 46.929 65.6094 47.2995 65.2249 47.6697C64.9884 47.8976 64.7757 48.149 64.5903 48.4201C62.5188 51.4309 60.5012 54.4761 58.6267 57.6123C57.9633 58.7228 57.3103 59.8389 56.7327 60.9972C56.339 61.7877 55.9697 62.5895 55.6485 63.4132C55.4838 63.8353 55.3321 64.2607 55.1839 64.6869C54.991 65.2513 54.8503 65.8322 54.7635 66.4223C54.6374 67.236 54.6542 68.0654 54.813 68.8732C54.8978 69.2968 55.0238 69.7114 55.2297 70.0944C55.3425 70.3134 55.4722 70.5234 55.6176 70.7222C56.065 71.3119 56.6731 71.5432 57.4013 71.4773C57.9558 71.4233 58.4902 71.2415 58.9627 70.9461C59.4182 70.6675 59.8652 70.3744 60.3176 70.0896C60.3862 70.0459 60.4596 70.0103 60.5364 69.9835C60.5555 69.9796 60.5753 69.9802 60.5941 69.9853C60.6129 69.9904 60.6303 69.9999 60.6449 70.0129C60.6663 70.0353 60.6631 70.0839 60.6627 70.1219C60.6595 70.1423 60.6496 70.161 60.6345 70.1751C59.9731 70.8891 59.2338 71.503 58.3567 71.938C58.0443 72.0954 57.7127 72.2112 57.3703 72.2824C56.5311 72.4527 55.7841 72.2601 55.1294 71.7048C54.6004 71.2564 54.2272 70.6969 53.9765 70.0548C53.628 69.1671 53.4456 68.244 53.4008 67.2938C53.351 66.2813 53.4661 65.2838 53.6773 64.2957C53.7244 64.0756 53.7814 63.8554 53.8424 63.6376C54.1567 62.53 54.5398 61.4431 54.9894 60.3832C55.8261 58.3902 56.8727 56.5068 57.9514 54.6395C58.0536 54.4627 58.1374 54.2753 58.2276 54.0914C58.2483 54.0493 58.1736 53.9592 58.1289 53.9667C58.0289 53.9869 57.9273 54.0006 57.8301 54.0295C56.4264 54.4418 54.9858 54.6513 53.5353 54.7936C52.9233 54.8535 52.3099 54.9021 51.6973 54.9565C51.5955 54.9656 51.4936 54.9753 51.391 54.9875C51.3501 54.9899 51.3103 55.0017 51.2748 55.0222C51.2393 55.0426 51.2091 55.0711 51.1865 55.1053C51.0334 55.3486 50.8772 55.5898 50.729 55.8357C49.3652 58.1062 47.9558 60.3461 46.4718 62.5384C42.5365 68.3566 37.8936 73.5397 32.5432 78.0877C31.3352 79.1098 30.1013 80.0995 28.8103 81.0158C25.3695 83.4545 21.6083 85.2017 17.5266 86.2574C15.798 86.707 14.0278 86.9779 12.2439 87.0658C11.4421 87.1056 10.6407 87.0988 9.84738 86.9915C8.61955 86.8258 7.43378 86.5113 6.33493 85.9077C5.39229 85.3953 4.60037 84.6447 4.03807 83.7308C3.34197 82.6118 2.94743 81.3871 2.80367 80.0839C2.69438 79.1006 2.72567 78.1198 2.86213 77.1361C3.02645 75.9645 3.39672 74.8586 3.83061 73.7696C5.40404 69.8179 8.99476 64.3373 13.7708 60.3993C16.6807 58.0007 19.935 56.2612 23.5311 55.1457C25.493 54.539 27.5088 54.1231 29.5506 53.9038C30.3809 53.8133 30.2312 53.8479 30.6693 53.219C32.8507 50.0867 35.0535 46.9696 37.3118 43.8919C39.1568 41.3765 41.0108 38.8678 42.8737 36.3659C43.8054 35.1149 44.7821 33.899 45.8037 32.7183C45.9238 32.5789 46.0258 32.424 46.1359 32.2764C46.1637 32.2391 46.1546 32.2033 46.1132 32.1734C46.0991 32.1599 46.0814 32.1507 46.0623 32.1468C46.0022 32.1429 45.9418 32.1477 45.883 32.161C43.8439 32.8065 41.7544 33.2263 39.6455 33.5642C37.7213 33.8721 35.7908 34.1191 33.8547 34.348C32.0604 34.556 30.2913 34.9428 28.5739 35.5027C26.6105 36.1475 24.8722 37.1705 23.3395 38.5505C22.8366 39.0045 22.3592 39.4861 21.9095 39.993C21.1759 40.8169 20.6581 41.7673 20.2586 42.7868C20.1259 43.1129 20.0838 43.4687 20.1368 43.8167C20.1464 43.8776 20.168 43.9395 20.1619 43.9986C20.1555 44.0587 20.1329 44.1159 20.0966 44.1642C20.0478 44.2254 19.871 44.2441 19.8055 44.2097C19.6181 44.1117 19.4677 43.9754 19.3856 43.778C19.3284 43.6458 19.3003 43.5029 19.303 43.3589C19.3117 42.9681 19.3667 42.5797 19.4666 42.2017C19.6879 41.3591 20.0615 40.5846 20.5217 39.8499C20.8044 39.3967 21.1295 38.9714 21.4926 38.5798C23.347 36.5867 25.5333 35.1044 28.1314 34.2504C29.5384 33.7886 30.9763 33.4573 32.4381 33.2244C33.5731 33.0434 34.718 32.9502 35.8603 32.8337C37.4722 32.6697 39.0846 32.5141 40.6892 32.2868C41.8271 32.1255 42.9537 31.9029 44.07 31.6292C45.0295 31.394 45.9649 31.09 46.8634 30.6747C47.1429 30.5453 47.4171 30.4036 47.6906 30.2614C48.1288 30.0334 48.527 29.7355 48.8694 29.3793C49.1257 29.1134 49.3989 28.8646 49.6757 28.6185C50.0571 28.2742 50.4724 27.9694 50.9153 27.7089C51.0732 27.613 51.2399 27.5324 51.4131 27.4683C51.7115 27.3633 51.9802 27.4374 52.2002 27.6644C52.4202 27.8915 52.4852 28.2451 52.352 28.5207C52.2438 28.744 52.0905 28.9362 51.9244 29.1202C51.3731 29.7287 50.8238 30.3389 50.2767 30.9509C50.1383 31.1031 50.0107 31.2635 49.8831 31.4241C49.8625 31.45 49.8671 31.497 49.864 31.5346C49.861 31.5723 49.9579 31.6174 50.0187 31.5988C50.2537 31.5263 50.4879 31.4493 50.7232 31.3769C51.0175 31.2864 51.3111 31.1925 51.6078 31.1119C52.1488 30.9656 52.6996 30.9427 53.2564 30.9911C53.565 31.0187 53.863 31.1177 54.1268 31.2802C54.6069 31.5712 54.8235 32.0147 54.7977 32.5767C54.7755 33.0608 54.6006 33.4995 54.3892 33.9239C54.0297 34.6456 53.5574 35.2903 53.0018 35.8733C52.6307 36.2576 52.2376 36.6198 51.8244 36.9583C51.651 37.1023 51.4871 37.2579 51.3209 37.41C51.2703 37.4561 51.317 37.5871 51.3902 37.6042C51.5494 37.6416 51.7098 37.6741 51.8691 37.7109C52.3701 37.8275 52.8481 38.0274 53.283 38.3022C54.0806 38.8005 54.6248 39.4989 54.9244 40.389C55.0776 40.8579 55.1722 41.344 55.206 41.8362C55.2612 42.5942 55.2431 43.3558 55.1519 44.1103C55.0304 45.1301 54.8331 46.1377 54.5874 47.1727ZM3.97626 75.8346C3.91507 76.0736 3.8511 76.3119 3.79303 76.5504C3.52987 77.6406 3.4876 78.7446 3.61284 79.8534C3.74096 80.9897 4.0729 82.0602 4.66844 83.0449C5.11342 83.7885 5.74049 84.4064 6.49048 84.8403C6.90131 85.0781 7.34019 85.2465 7.79325 85.3867C8.80161 85.6989 9.83119 85.8699 10.8865 85.8575C11.5837 85.8485 12.2799 85.802 12.9721 85.7182C14.8145 85.4978 16.5997 85.0403 18.3474 84.4289C21.4961 83.3272 24.3796 81.7309 27.0396 79.7256C29.1257 78.1533 31.0758 76.4232 32.9471 74.6023C35.0819 72.5251 37.08 70.3215 39.0553 68.0928C40.8909 66.0188 42.5872 63.8254 44.1331 61.5272C45.4637 59.5537 46.7146 57.5288 47.9911 55.5205C48.0208 55.4667 48.0462 55.4107 48.0671 55.353C48.0955 55.286 48.0371 55.1672 47.9663 55.1614C47.8252 55.1411 47.6829 55.1298 47.5404 55.1276C45.878 55.1613 44.2171 55.1178 42.5589 55.013C41.0846 54.9205 39.6122 54.7962 38.1397 54.6733C36.9739 54.5758 35.8073 54.5014 34.6382 54.4594C34.1456 54.4414 33.6541 54.4449 33.162 54.438C33.0795 54.4345 32.9974 54.4515 32.923 54.4874C32.8486 54.5233 32.7843 54.5771 32.7357 54.6439C32.6612 54.7419 32.5943 54.8454 32.5254 54.9475C32.2717 55.3209 32.02 55.6955 31.7652 56.068C29.8561 58.8641 27.8626 61.6014 25.8349 64.3118C25.3066 65.0185 24.7686 65.7177 24.2301 66.4164C23.9017 66.8379 23.5415 67.2334 23.1525 67.5996C22.9317 67.8156 22.6729 67.989 22.3892 68.1109C22.2751 68.1577 22.1525 68.1802 22.0292 68.1769C21.9262 68.1733 21.8269 68.138 21.7448 68.0758C21.6626 68.0137 21.6016 67.9277 21.5701 67.8296C21.5295 67.7125 21.5211 67.5867 21.5457 67.4652C21.6097 67.1831 21.6818 66.9078 21.8106 66.6467C22.022 66.2246 22.2602 65.8165 22.5238 65.4249C24.2385 62.845 25.9516 60.2638 27.6631 57.6813C28.1963 56.8779 28.7286 56.0738 29.2601 55.2693C29.3386 55.1501 29.4077 55.0242 29.4751 54.8979C29.5265 54.8023 29.4507 54.6927 29.3332 54.6934C29.2311 54.6911 29.129 54.6969 29.0278 54.7108C28.4006 54.8155 27.7752 54.9266 27.1481 55.0297C26.157 55.1983 25.1767 55.4257 24.2125 55.7108C21.0257 56.6352 18.0777 58.0509 15.4043 60.0216C13.9951 61.0602 12.7029 62.2312 11.4877 63.4886C9.00178 66.0613 6.93036 69.0046 5.34748 72.2131C4.77252 73.3728 4.27718 74.5697 3.97626 75.8346ZM52.5537 45.277C52.6849 44.7644 52.7937 44.3254 52.9092 43.8884C53.0528 43.3492 53.106 42.7958 53.158 42.2441C53.1956 41.8142 53.1878 41.3815 53.1348 40.9532C53.0856 40.4781 52.8744 40.0344 52.5365 39.6968C52.0739 39.2326 51.5185 38.9355 50.8638 38.8499C50.6395 38.8242 50.4136 38.8135 50.1878 38.8181C49.4401 38.8227 48.7157 38.9304 48.0526 39.3104C47.8017 39.4541 47.5262 39.5421 47.2442 39.6028C47.0844 39.6399 46.9218 39.6634 46.7581 39.6731C46.6861 39.6777 46.6138 39.6673 46.546 39.6425C46.4781 39.6178 46.4162 39.5791 46.3641 39.5291C46.3086 39.4755 46.2653 39.4107 46.2371 39.3389C46.2089 39.2671 46.1965 39.1901 46.2008 39.1131C46.2051 39.0361 46.2259 38.9609 46.2618 38.8926C46.2977 38.8244 46.348 38.7647 46.409 38.7176C46.6036 38.5649 46.8232 38.4473 47.0582 38.3701C47.3507 38.2739 47.6436 38.1789 47.937 38.0851C48.9707 37.7568 49.0152 37.736 49.9193 37.1216C50.0553 37.029 50.19 36.9344 50.3235 36.8377C51.1553 36.2296 51.9224 35.5509 52.5893 34.7613C52.9364 34.3553 53.2366 33.9115 53.4842 33.4382C53.6358 33.1454 53.7522 32.838 53.7988 32.5084C53.8154 32.4065 53.7982 32.3019 53.7496 32.2108C53.7011 32.1196 53.624 32.047 53.5302 32.0039C53.209 31.8632 52.8614 31.7926 52.5108 31.797C52.1197 31.7969 51.7309 31.8552 51.357 31.9699C50.4768 32.2554 49.6208 32.6111 48.7975 33.0337C48.539 33.1619 48.3113 33.3446 48.13 33.5691C48.0276 33.6974 47.9174 33.8197 47.8186 33.9506C47.3982 34.5062 46.9811 35.0673 46.5613 35.6247C42.2304 41.382 37.9843 47.2013 33.8232 53.0826C33.7758 53.1497 33.7259 53.2152 33.6823 53.2846C33.6497 53.3366 33.6247 53.3932 33.5966 53.4484C33.5445 53.5511 33.5954 53.6682 33.7044 53.6749C34.0519 53.7015 34.3994 53.7295 34.7477 53.743C35.7315 53.7846 36.7157 53.8247 37.6979 53.909C38.4764 53.9756 39.2533 54.0292 40.0312 54.0878C40.8702 54.151 41.7088 54.2188 42.5489 54.274C43.3678 54.3291 44.1871 54.3879 45.007 54.4188C46.0116 54.4567 47.0162 54.4688 48.0218 54.4888C48.1244 54.4909 48.2275 54.4855 48.3299 54.4792C48.4125 54.4774 48.4934 54.4552 48.5653 54.4144C48.6371 54.3737 48.6978 54.3157 48.7417 54.2457C48.8522 54.073 48.9571 53.8963 49.0611 53.7193C50.0889 51.9645 50.9532 50.1188 51.643 48.2056C51.9993 47.2201 52.3387 46.227 52.5537 45.277ZM84.6178 25.5092C84.6303 25.4461 84.6553 25.3264 84.6772 25.206C84.6924 25.1221 84.6093 25.0361 84.5319 25.0588C84.3753 25.1046 84.2152 25.1435 84.0664 25.2079C83.5165 25.4461 83.0183 25.7686 82.5544 26.1472C80.9665 27.4483 79.4783 28.8667 78.1023 30.3903C76.7654 31.8656 75.5039 33.4032 74.2819 34.9735C71.8501 38.0981 69.5641 41.3282 67.2675 44.5516C67.2451 44.5859 67.2261 44.6222 67.2106 44.6601C67.2016 44.6782 67.1965 44.6981 67.1957 44.7183C67.1952 44.7384 67.1973 44.7701 67.209 44.7764C67.238 44.7925 67.2896 44.8176 67.3085 44.8045C67.4116 44.7379 67.5086 44.6623 67.5984 44.5786C69.3562 42.8527 71.1929 41.2123 73.031 39.5738C74.6399 38.1397 76.2204 36.6764 77.7408 35.1477C78.8406 34.0418 79.9145 32.9121 80.9051 31.7056C82.001 30.3706 82.9824 28.9583 83.7824 27.4245C84.1086 26.8079 84.3878 26.1677 84.6178 25.5092Z" fill="#8A817C"/>
</svg>
