<svg width="425" height="322" viewBox="0 0 425 322" fill="none" xmlns="http://www.w3.org/2000/svg">
<g clip-path="url(#clip0)">
<path d="M425 256.137L290.065 309.412L260.542 321.066L196.683 298.805L142.185 279.807L137.658 278.23L131.024 261.425L104.648 194.616L91.4082 161.077L87.4266 150.995L84.5473 143.699L78.1297 127.443L67.7383 101.125L90.4354 92.1654L112.113 83.6059L127.694 77.455L323.875 0L425 256.137Z" fill="#F2F2F2"/>
<path d="M9.78326 171.133C11.4218 170.779 13.1342 171.089 14.5437 171.997C15.9532 172.905 16.9443 174.335 17.299 175.974C17.6538 177.613 17.3431 179.325 16.4353 180.734C15.5275 182.144 14.0969 183.135 12.4584 183.49C9.04624 184.229 0 179.719 0 179.719C0 179.719 6.37112 171.872 9.78326 171.133Z" fill="black"/>
<path d="M11.2937 300.917C12.3665 299.629 13.9071 298.819 15.5767 298.667C17.2462 298.514 18.908 299.031 20.1964 300.104C21.4848 301.177 22.2943 302.717 22.4468 304.387C22.5993 306.057 22.0823 307.718 21.0096 309.007C18.7757 311.69 8.87109 313.706 8.87109 313.706C8.87109 313.706 9.05987 303.6 11.2937 300.917Z" fill="black"/>
<path d="M285.445 95.1049C275.261 77.8981 255.114 77.0962 255.114 77.0962C255.114 77.0962 235.482 74.5856 222.888 100.792C211.15 125.218 194.949 148.802 220.28 154.52L224.856 140.279L227.689 155.581C231.296 155.84 234.914 155.902 238.527 155.766C265.655 154.89 291.49 156.022 290.658 146.288C289.552 133.347 295.243 111.661 285.445 95.1049Z" fill="#2F2E41"/>
<path d="M243.646 131.118C247.155 138.88 249.368 148.132 250.689 158.409L278.861 156.648C272.384 147.47 270.234 136.936 272.698 124.955L243.646 131.118Z" fill="#FFB8B8"/>
<path opacity="0.2" d="M243.646 131.118C247.155 138.88 249.368 148.132 250.689 158.409L278.861 156.648C272.384 147.47 270.234 136.936 272.698 124.955L243.646 131.118Z" fill="black"/>
<path d="M112.938 278.901C112.938 278.901 98.3578 286.711 105.757 293.379C113.155 300.047 122.929 284.553 122.929 284.553L112.938 278.901Z" fill="#FFB8B8"/>
<path d="M291.187 256.129L290.959 266.799L290.473 289.853L290.065 309.412L260.542 321.066L196.684 298.804L200.885 275.476L204.278 256.639L205.792 248.205L282.384 237.641L291.187 256.129Z" fill="#2F2E41"/>
<path d="M291.187 256.129L290.958 266.799C263.86 266.104 221.858 259.563 204.277 256.64L205.792 248.206L282.383 237.642L291.187 256.129Z" fill="#3F3D56"/>
<path d="M257.294 138.6C269.449 138.6 279.303 128.746 279.303 116.591C279.303 104.436 269.449 94.582 257.294 94.582C245.139 94.582 235.285 104.436 235.285 116.591C235.285 128.746 245.139 138.6 257.294 138.6Z" fill="#FFB8B8"/>
<path d="M299.55 268.014C299.55 268.014 302.191 291.784 286.345 290.023L283.704 266.253L269.618 252.167L230.002 251.287L200.95 278.578C200.95 278.578 200.069 250.407 203.591 247.766C207.112 245.125 215.035 238.962 215.035 238.962V234.56L191.266 186.14C191.266 186.14 205.351 157.088 216.796 156.208L231.762 155.328C231.762 155.328 237.044 152.687 237.044 151.806C237.044 150.926 236.164 143.883 240.566 145.644C240.566 145.644 240.962 136.611 245.601 139.367C245.601 139.367 260.207 150.811 275.032 139.868C275.032 139.868 281.943 138.601 281.062 142.122C280.182 145.644 281.062 148.285 282.823 148.285C284.584 148.285 292.507 150.926 292.507 152.687C292.507 153.065 293.079 156.71 293.977 162.194V162.203C297.244 182.196 304.832 226.637 304.832 226.637C304.832 226.637 312.755 238.082 299.55 268.014Z" fill="black"/>
<path d="M197.428 181.738L191.266 186.14L134.923 258.33L104.99 282.099C104.99 282.099 121.717 279.458 118.196 293.544L221.198 234.56L197.428 181.738Z" fill="black"/>
<path d="M293.979 162.194V162.203C292.808 169.087 254.653 167.652 249.371 167.652C244.089 167.652 239.687 166.772 234.405 163.25C229.123 159.729 231.764 155.327 231.764 155.327C231.764 155.327 236.261 151.901 236.261 151.021C236.261 150.141 235.381 143.098 239.783 144.858C239.783 144.858 240.179 135.826 244.818 138.581C244.818 138.581 260.208 150.811 275.034 139.868C275.034 139.868 281.944 138.6 281.064 142.122C280.184 145.643 281.064 148.284 282.825 148.284C284.585 148.284 292.509 150.925 292.509 152.686C292.509 153.064 293.081 156.709 293.979 162.194Z" fill="#3F3D56"/>
<path d="M289.425 129.357C289.425 129.357 282.382 114.39 275.34 121.433C268.297 128.476 283.263 139.041 283.263 139.041L289.425 129.357Z" fill="#FFB8B8"/>
<path d="M289.427 125.835C289.427 125.835 278.551 139.579 275.186 140.63C275.186 140.63 285.025 179.537 297.35 190.101L304.393 226.196C304.393 226.196 334.325 213.871 327.282 193.623C327.212 193.42 327.142 193.219 327.072 193.019C321.192 176.156 313.076 160.159 302.942 145.454L289.427 125.835Z" fill="black"/>
<path opacity="0.2" d="M283.615 166.599L305.273 226.196L297.35 190.101L283.615 166.599Z" fill="black"/>
<path d="M280.943 93.4464L261.039 83.0205L233.552 87.2857L227.865 112.403L242.022 111.859L245.977 102.631V111.707L252.508 111.455L256.3 96.7639L258.67 112.403L281.891 111.929L280.943 93.4464Z" fill="#2F2E41"/>
<path d="M110.19 289.679C96.5073 282.052 87.9895 271.638 84.8728 258.728C82.5586 249.142 83.2236 238.356 86.8491 226.668C89.5367 218.051 93.5664 209.911 98.7896 202.549C126.499 163.327 129 137.77 126.219 123.236C123.169 107.301 113.261 100.683 113.162 100.618L113.589 99.96C113.692 100.026 123.861 106.798 126.983 123.057C128.784 132.43 127.937 143.118 124.466 154.824C120.146 169.392 111.723 185.602 99.4305 203.002C94.2549 210.297 90.2618 218.362 87.5984 226.9C81.6522 246.07 80.8109 272.403 110.572 288.995L110.19 289.679Z" fill="#2F2E41"/>
<path d="M85.1991 217.052C74.4123 211.039 74.7126 201.51 76.864 194.575C77.8179 191.516 79.2482 188.626 81.1023 186.013C90.8098 172.272 91.687 163.346 90.7136 158.278C89.6563 152.774 86.2647 150.514 86.2306 150.492L86.6581 149.834C86.8089 149.932 90.3644 152.301 91.484 158.13C92.9418 165.719 89.6645 175.253 81.7432 186.466C79.9366 189.012 78.5428 191.827 77.6133 194.807C75.548 201.465 75.2537 210.61 85.5811 216.367L85.1991 217.052Z" fill="#2F2E41"/>
<path d="M133.729 129.967L133.347 129.281C143.675 123.524 143.38 114.379 141.315 107.721C140.386 104.741 138.992 101.926 137.185 99.3799C129.264 88.1673 125.987 78.6335 127.444 71.0437C128.564 65.2149 132.12 62.8459 132.27 62.748L132.698 63.4054C132.664 63.428 129.255 65.7173 128.209 71.2226C127.246 76.2883 128.133 85.2068 137.826 98.9271C139.68 101.54 141.11 104.43 142.064 107.488C144.216 114.424 144.516 123.953 133.729 129.967Z" fill="#2F2E41"/>
<path d="M156.762 90.9351C155.917 92.23 154.826 93.346 153.551 94.2192C152.275 95.0924 150.84 95.7058 149.328 96.0243C147.815 96.3428 146.255 96.3602 144.735 96.0754C143.216 95.7906 141.767 95.2093 140.473 94.3647C139.178 93.5201 138.063 92.4286 137.19 91.1528C136.317 89.8769 135.704 88.4416 135.386 86.9289C135.068 85.4161 135.052 83.8555 135.337 82.3363C135.622 80.817 136.204 79.3689 137.049 78.0746C140.601 72.6311 158.48 66.7637 158.48 66.7637C158.48 66.7637 160.313 85.4916 156.762 90.9351Z" fill="black"/>
<path d="M152.445 54.4526C151.601 55.7476 150.51 56.8636 149.235 57.7368C147.959 58.61 146.524 59.2234 145.011 59.5419C143.499 59.8604 141.938 59.8777 140.419 59.593C138.899 59.3082 137.451 58.7269 136.156 57.8823C134.862 57.0376 133.746 55.9462 132.873 54.6704C132.001 53.3945 131.388 51.9592 131.07 50.4464C130.752 48.9337 130.735 47.3731 131.021 45.8539C131.306 44.3346 131.888 42.8865 132.733 41.5922C136.284 36.1487 154.164 30.2812 154.164 30.2812C154.164 30.2812 155.997 49.0092 152.445 54.4526Z" fill="black"/>
<path d="M133.479 188.108C130.718 188.113 128.037 187.178 125.879 185.456C123.72 183.735 122.211 181.331 121.6 178.638C120.989 175.946 121.313 173.126 122.518 170.642C123.723 168.157 125.737 166.157 128.23 164.97C134.153 162.147 151.919 166.279 152.673 166.456L153.15 166.569L152.937 167.009C152.599 167.706 144.613 184.105 138.689 186.927C137.062 187.705 135.282 188.108 133.479 188.108ZM134.468 164.772C132.059 164.772 129.947 165.021 128.567 165.678C125.843 166.976 123.746 169.302 122.738 172.146C121.729 174.989 121.892 178.117 123.189 180.841C124.487 183.565 126.813 185.662 129.657 186.67C132.5 187.679 135.628 187.517 138.352 186.219C143.505 183.764 150.673 169.792 152.011 167.111C149.87 166.635 141.057 164.772 134.468 164.772Z" fill="#2F2E41"/>
<path d="M109.496 80.1371C110.638 81.1783 111.564 82.4343 112.22 83.8334C112.877 85.2324 113.251 86.7471 113.323 88.2909C113.394 89.8346 113.16 91.3773 112.635 92.8309C112.11 94.2844 111.304 95.6203 110.263 96.7623C109.222 97.9043 107.966 98.8299 106.567 99.4865C105.168 100.143 103.653 100.518 102.109 100.589C100.565 100.66 99.0226 100.427 97.5691 99.9015C96.1156 99.3765 94.7797 98.5704 93.6377 97.5291C88.835 93.1499 85.9141 74.5605 85.9141 74.5605C85.9141 74.5605 104.693 75.7579 109.496 80.1371Z" fill="black"/>
<path d="M82.0371 129.564C84.3434 131.667 85.7199 134.6 85.8637 137.718C86.0075 140.835 84.9069 143.883 82.804 146.189C80.701 148.495 77.768 149.872 74.6502 150.016C71.5323 150.159 68.4851 149.059 66.1787 146.956C61.3761 142.577 58.4551 123.987 58.4551 123.987C58.4551 123.987 77.2344 125.185 82.0371 129.564Z" fill="black"/>
<path d="M112.815 136.496C108.887 136.496 101.376 132.776 101.032 132.604L100.594 132.386L100.902 132.006C101.166 131.681 107.401 124.043 110.907 123.284C112.647 122.907 114.466 123.237 115.963 124.201C117.46 125.165 118.513 126.685 118.889 128.425C119.266 130.165 118.936 131.984 117.972 133.481C117.008 134.978 115.488 136.031 113.748 136.407C113.441 136.469 113.128 136.499 112.815 136.496ZM101.829 132.119C103.679 133.002 110.764 136.251 113.582 135.64C115.118 135.307 116.459 134.377 117.309 133.055C118.16 131.733 118.451 130.128 118.119 128.592C117.786 127.056 116.857 125.714 115.536 124.863C114.215 124.011 112.609 123.719 111.073 124.051C108.253 124.661 103.148 130.55 101.829 132.119Z" fill="#2F2E41"/>
<path d="M70.6881 296.099C71.5145 294.642 72.8859 293.572 74.5009 293.125C76.1158 292.678 77.8422 292.89 79.3006 293.715C80.759 294.541 81.83 295.911 82.2783 297.526C82.7266 299.14 82.5154 300.867 81.6912 302.326C79.9718 305.364 70.5858 309.116 70.5858 309.116C70.5858 309.116 68.9687 299.138 70.6881 296.099Z" fill="black"/>
<path d="M50.155 228.79C47.4474 228.747 44.7462 228.514 42.0711 228.093L41.5879 228.015L41.7699 227.561C41.9252 227.172 45.6114 218.028 48.7347 216.262C49.5021 215.828 50.3475 215.55 51.2226 215.442C52.0977 215.335 52.9854 215.401 53.8349 215.637C54.6844 215.873 55.4791 216.274 56.1737 216.817C56.8682 217.36 57.4491 218.034 57.883 218.802C58.3169 219.569 58.5954 220.415 58.7026 221.29C58.8098 222.165 58.7435 223.053 58.5077 223.902C58.2718 224.752 57.871 225.546 57.328 226.241C56.785 226.935 56.1105 227.516 55.3431 227.95C54.221 228.585 52.245 228.79 50.155 228.79ZM42.6879 227.393C44.7163 227.687 52.446 228.686 54.9569 227.268C56.3258 226.494 57.3312 225.208 57.7519 223.692C58.1726 222.177 57.9742 220.557 57.2003 219.188C56.4264 217.819 55.1404 216.814 53.6252 216.393C52.11 215.972 50.4897 216.171 49.1208 216.945C46.6103 218.364 43.4819 225.503 42.6879 227.393Z" fill="#2F2E41"/>
</g>
<defs>
<clipPath id="clip0">
<rect width="425" height="321.066" fill="white"/>
</clipPath>
</defs>
</svg>
